<?xml version="1.0" encoding="utf-8"?><svg viewBox="0 0 1920 1477" xmlns="http://www.w3.org/2000/svg" xmlns:xlink="http://www.w3.org/1999/xlink"><style>:root>svg{display:none}:root>svg:target{display:block}</style><svg viewBox="0 0 20 8" id="arrow" xmlns="http://www.w3.org/2000/svg"><path d="M19.354 4.352a.5.5 0 000-.708L16.172.463a.5.5 0 10-.708.707l2.829 2.828-2.829 2.828a.5.5 0 10.708.708l3.182-3.182zM0 4.498h19v-1H0v1z"/></svg><svg viewBox="0 0 24 21" id="buy-cart" xmlns="http://www.w3.org/2000/svg"><path d="M5.733.472a6.429 6.429 0 00-2.498 1.002c-.493.331-1.29 1.137-1.619 1.64a6.38 6.38 0 00-.956 2.33c-.058.316-.07.59-.054 1.326.018.813.034.982.134 1.362a6.34 6.34 0 001.05 2.21c.153.21 2.146 2.261 5.244 5.398l4.997 5.06 4.74-4.789c2.606-2.634 4.89-4.96 5.074-5.171.755-.863 1.2-1.76 1.453-2.93.137-.63.136-1.826-.002-2.479-.268-1.268-.829-2.334-1.683-3.2a5.415 5.415 0 00-1.528-1.124C19.253.685 18.523.5 17.548.464c-1.066-.04-1.916.133-2.833.574-.745.36-1.159.668-1.958 1.46l-.727.72-.747-.744c-.822-.816-1.222-1.115-1.98-1.48a6.168 6.168 0 00-3.57-.522zm1.764 1.626c.5.088 1.084.31 1.552.59.31.186.58.434 1.676 1.53l1.308 1.309 1.239-1.248c1.319-1.328 1.61-1.564 2.267-1.841.659-.277.952-.333 1.763-.337.824-.004 1.172.063 1.837.354 2.675 1.171 3.557 4.61 1.787 6.965-.155.208-2.074 2.182-4.581 4.716l-4.314 4.36-4.336-4.382C5.17 11.56 3.245 9.58 3.087 9.37a4.652 4.652 0 01-.717-4.11c.684-2.212 2.87-3.56 5.127-3.162z"/></svg><svg viewBox="0 0 18 19" id="cart-buy" xmlns="http://www.w3.org/2000/svg"><g clip-path="url(#cclip0_1526_10766)"><path fill-rule="evenodd" clip-rule="evenodd" d="M8.74.67C7.25.806 6.057 1.81 5.69 3.238c-.06.233-.075.42-.09 1.21l-.017.936H2.6v.111c0 .062-.18 2.914-.4 6.339-.22 3.425-.4 6.262-.4 6.305v.077h14.4v-.078c0-.042-.18-2.878-.4-6.302-.22-3.424-.4-6.277-.4-6.339v-.113h-2.983l-.017-.935c-.02-1.073-.055-1.272-.325-1.84C11.526 1.455 10.45.74 9.157.673A3.887 3.887 0 008.739.67zm.849 1.098c.106.026.326.112.489.19.549.266 1.024.84 1.202 1.453.047.162.063.394.076 1.09l.016.883H6.628l.016-.884c.013-.695.03-.927.076-1.09a2.445 2.445 0 011.568-1.608c.396-.126.88-.14 1.301-.034zM5.591 7.116v.704h1.044V6.413h4.73V7.82h1.044V6.412l1 .01.999.008.337 5.232c.186 2.878.339 5.298.34 5.379l.002.145H9c-4.846 0-6.087-.008-6.088-.043-.003-.098.67-10.648.682-10.687.01-.033.241-.043 1.005-.043h.992v.703z"/></g><defs><clipPath id="cclip0_1526_10766"><path fill="#fff" transform="translate(0 .666)" d="M0 0h18v18H0z"/></clipPath></defs></svg><svg viewBox="0 0 20 20" id="cart-like" xmlns="http://www.w3.org/2000/svg"><path fill-rule="evenodd" clip-rule="evenodd" d="M4.777 2.06a5.357 5.357 0 00-2.081.835c-.411.276-1.075.948-1.35 1.366A5.317 5.317 0 00.55 6.204c-.048.263-.058.49-.045 1.105.015.677.029.818.112 1.134.183.693.452 1.26.875 1.842.127.175 1.788 1.884 4.37 4.498L10.024 19l3.95-3.99c2.173-2.195 4.076-4.135 4.229-4.31.629-.72 1-1.467 1.211-2.441.114-.526.113-1.522-.002-2.066-.223-1.058-.69-1.945-1.402-2.667a4.513 4.513 0 00-1.273-.937c-.694-.352-1.302-.506-2.115-.536-.888-.033-1.596.11-2.36.479-.62.299-.966.556-1.633 1.216l-.605.6-.623-.62c-.685-.68-1.018-.93-1.65-1.234a5.14 5.14 0 00-2.975-.434z"/></svg><svg viewBox="0 0 24 24" id="close" xmlns="http://www.w3.org/2000/svg"><path d="M12 10l7-7 2 2-7 7 7 7-2 2-7-7-7 7-2-2 7-7-7-7 2-2 7 7z"/></svg><svg viewBox="0 0 24 24" id="close-icon" xmlns="http://www.w3.org/2000/svg"><path d="M12 10l7-7 2 2-7 7 7 7-2 2-7-7-7 7-2-2 7-7-7-7 2-2 7 7z"/></svg><svg fill="none" viewBox="0 0 54 36" id="developers" xmlns="http://www.w3.org/2000/svg"><path d="M3.474 35.282c-.39 0-.688-.023-.894-.069-.482-.092-1.02-.275-1.617-.55l-.413-.31c-.366-.299-.55-.735-.55-1.308 0-.299.034-.608.103-.93.207-.642.46-1.238.757-1.789a19.507 19.507 0 012.339-3.51 58.19 58.19 0 011.788-2.134l.792-.826.515-.551c.368-.39.964-.952 1.789-1.687l1.273-1.101c.069-.069.527-.424 1.376-1.067l1.616-1.17.894-.62a.799.799 0 00.207-.137 9.852 9.852 0 01-.207-.327 1.188 1.188 0 00-.275-.327l-.068-.07a2.956 2.956 0 00-.413-.532 10.827 10.827 0 01-.447-.5 2.753 2.753 0 00-.55-.585l-.172-.137a9.632 9.632 0 01-.448-.482 6.33 6.33 0 00-.55-.55l-1.032-.999-.86-.93-.206-.206c-.298-.298-.63-.71-.998-1.239-.298-.527-.493-.998-.584-1.41a4.752 4.752 0 01-.07-.345 2.995 2.995 0 01-.034-.482 9.97 9.97 0 01.207-1.273c.069-.299.24-.7.516-1.205l.55-.792A6.722 6.722 0 018.84 3.893c.298-.298.619-.585.963-.86l.086-.086.086-.086c.367-.321.883-.676 1.548-1.067.252-.138.487-.258.705-.361.218-.104.407-.19.568-.258.228-.138.47-.218.722-.241.137-.023.4-.08.791-.172.298-.092.654-.115 1.066-.07.367.047.642.093.826.138.55.116 1.009.31 1.376.585.435.344.676.804.722 1.377v.826a6.997 6.997 0 01-.791 2.547l-.413.757c-.206.275-.321.425-.344.447-.16.207-.355.264-.584.173h-.207a.501.501 0 01-.31-.104c-.114-.114-.137-.229-.068-.344.046-.091.091-.149.137-.172.138-.207.321-.539.55-.998a7.89 7.89 0 00.551-1.79c.023-.207.034-.539.034-.998a1.46 1.46 0 00-.31-.826c-.206-.276-.446-.413-.721-.413-.138 0-.344.023-.62.069-.481.137-1.1.378-1.857.723l-.929.55c-.32.23-.562.413-.722.55l-.516.448c-.115.092-.252.23-.412.413a4.08 4.08 0 01-.447.448l-.138.137-.688.964A5.578 5.578 0 008.67 7.85a3.26 3.26 0 00-.104.791c0 .368.07.747.207 1.136l.103.138c.069.137.138.258.206.361.07.103.126.201.172.293.023.068.15.218.379.447l.24.344.104.103c.366.322.63.574.79.757l.517.517.344.31.206.206.894.86c.275.276.459.482.55.62.16.206.345.39.551.55.229.23.367.38.413.448l.275.31.447.55c.023 0 .103-.034.241-.103l3.027-1.755 1.031-.62c.07-.022.298-.149.689-.378a.917.917 0 01.412-.104c.275 0 .413.104.413.31 0 .184-.138.356-.413.516a9.818 9.818 0 00-.774.43c-.24.15-.453.27-.636.362l-1.686.998-1.72 1.067.585.93c.207.32.424.676.654 1.066.183.299.286.494.31.585.068.115.217.436.446.964a.895.895 0 01.103.413c.092.206.15.46.173.757.022.298.045.516.069.654.022.069.034.195.034.378 0 .207-.012.367-.034.482-.047 1.17-.299 2.238-.757 3.201-.138.321-.356.689-.654 1.102-.16.275-.321.493-.481.654l-.344.482a4.957 4.957 0 01-.379.482c-.16.183-.287.332-.378.447a5.735 5.735 0 01-1.032.93l-.103.103c-.16.183-.36.366-.602.55-.24.184-.418.321-.533.413-.069.046-.332.218-.791.516l-.275.207c-.07.069-.115.103-.138.103a2.292 2.292 0 00-.584.379c-.55.32-.872.493-.963.516a1.72 1.72 0 00-.413.207c-.138.091-.275.16-.413.206-.092.046-.292.138-.602.276-.31.137-.602.229-.877.275l-.275.103c-.16.07-.378.138-.653.207a22.3 22.3 0 00-.654.172l-.516.069-.825.103a3.168 3.168 0 01-.55.035h-.621zm.138-1.033c.367-.068.596-.115.688-.137.229-.047.63-.16 1.203-.344l.688-.207c.505-.23.895-.39 1.17-.482.16-.069.401-.195.722-.378l.31-.173c.138-.069.298-.155.481-.258.184-.103.379-.224.585-.361.115-.069.275-.16.482-.276.206-.115.366-.229.481-.344l1.067-.791.79-.654c.414-.367.872-.86 1.377-1.48.16-.184.378-.46.653-.826l.516-.792c.184-.298.379-.688.585-1.17.344-.941.482-1.836.413-2.685 0-.573-.07-1.043-.207-1.41l-.069-.276a2.425 2.425 0 00-.154-.5 7.309 7.309 0 01-.19-.498 1.743 1.743 0 00-.103-.172.367.367 0 01-.069-.207c0-.046-.034-.103-.103-.172a1.18 1.18 0 01-.189-.31 1.204 1.204 0 00-.12-.24c-.23-.367-.413-.643-.551-.827l-.275.138-.654.482c-.573.344-1.387.929-2.442 1.755-.78.574-1.56 1.216-2.339 1.927a22.98 22.98 0 00-1.307 1.17l-.928.999-.482.516c-.39.436-.757.872-1.1 1.308a21.287 21.287 0 00-1.617 2.168c-.528.78-.906 1.434-1.136 1.962a5.92 5.92 0 00-.619 1.893c-.045.275-.057.47-.034.585 0 .435.206.745.62.929.297.115.561.172.79.172.344.047.7.035 1.067-.034z" fill="#7E7A74"/><path d="M18.849 21.343a3.356 3.356 0 01-.482-1.584c0-.435.046-.803.138-1.1.023-.092.046-.207.068-.345.023-.138.07-.298.138-.482.046-.16.103-.367.172-.62a4.86 4.86 0 01.207-.619c.091-.321.183-.62.275-.895l.24-.723c.138-.504.367-1.067.688-1.686l.241-.448c.16-.32.482-.482.963-.482.367 0 .62.104.757.31.046.092.069.23.069.413 0 .23-.07.528-.207.895-.137.367-.23.631-.275.791-.069.161-.126.31-.172.448a2.74 2.74 0 01-.137.344c-.115.322-.23.688-.344 1.101l-.207.723-.206.86c-.069.207-.184.632-.344 1.274a4.46 4.46 0 00-.104.998c0 .23.012.402.035.517 0 .183.046.332.138.447.09.046.228.046.412 0 .344-.16.642-.333.894-.517.413-.298.94-.837 1.583-1.617.366-.436.934-1.29 1.702-2.564.768-1.273 1.256-2.105 1.462-2.495.091-.276.275-.413.55-.413.16 0 .298.057.413.172.115.115.138.264.069.447-.069.253-.46.981-1.17 2.186-.71 1.204-1.215 2.013-1.513 2.426l-.825 1.033c-.62.826-1.296 1.457-2.03 1.893-.505.252-.94.378-1.307.378-.16 0-.275-.01-.344-.034-.71-.069-1.226-.413-1.547-1.032zm3.164-11.186a.653.653 0 01-.275-.55c.023-.07.034-.173.034-.31.07-.298.218-.459.448-.482.228-.022.452.006.67.086.218.081.361.178.43.293a.861.861 0 01.07.378c0 .207-.047.396-.139.568a.47.47 0 01-.447.259 2.302 2.302 0 01-.79-.242z" fill="#7E7A74"/><path d="M29.89 24.44l-.362-.172a1.087 1.087 0 01-.533-.55 3 3 0 01-.206-.688 6.348 6.348 0 01-.173-1.412c-.023-.366.012-.94.104-1.72l.035-.344-.173.206a5.674 5.674 0 01-.86.947c-.367.333-.71.556-1.031.67a1.13 1.13 0 01-.344.07c-.207 0-.401-.057-.585-.173l-.413-.206c-.39-.252-.584-.688-.584-1.308 0-.436.126-1.113.378-2.03a11.42 11.42 0 01.86-2.34c.23-.552.424-.953.585-1.205.206-.39.4-.711.584-.964.344-.504.792-.837 1.341-.998.207-.069.413-.103.62-.103.298 0 .607.103.928.31.023.022.184.149.482.378l.137-.138c.046-.137.092-.24.138-.31.091-.228.275-.4.55-.516.092-.045.172-.045.241 0 .184.07.459.196.826.379.16.092.217.23.172.413 0 .069-.012.167-.035.292a2.296 2.296 0 01-.069.293 32.374 32.374 0 01-.584 2.134c-.322 1.101-.54 1.939-.654 2.512-.184.735-.31 1.285-.378 1.652-.046.253-.092.632-.138 1.136l-.206 1.893v.103c.022.023.069 0 .137-.068.07-.138.16-.287.276-.448.114-.16.228-.344.343-.55.367-.689.71-1.412 1.032-2.169l.516-1.136.86-1.961.928-2.065a.586.586 0 01.224-.276.58.58 0 01.327-.103c.137 0 .246.052.327.155.08.103.097.236.051.395-.137.322-.229.563-.275.723a518.59 518.59 0 00-1.513 3.614 203.554 203.554 0 01-1.067 2.41c-.252.596-.63 1.262-1.135 1.995-.504.735-.928 1.136-1.272 1.205l-.413.069zm-2.924-4.577l.619-.585c.435-.435.86-.975 1.272-1.617.298-.436.505-.815.62-1.136.114-.321.24-.78.378-1.377.046-.229.069-.39.069-.482 0-.32-.127-.757-.379-1.308l-.068-.034-.138.103c-.275.322-.562.804-.86 1.446-.068.138-.252.528-.55 1.17-.207.413-.401.895-.585 1.446-.23.78-.39 1.365-.481 1.755-.047.344-.058.585-.035.723l.138-.104z" fill="#7E7A74"/><path d="M35.908 28.846c-.344-.253-.563-.563-.654-.93a7.894 7.894 0 01-.378-2.374c0-.643.046-1.24.138-1.79.045-.46.16-1.067.343-1.824.252-1.17.516-2.156.791-2.96.229-.734.527-1.491.895-2.271.091-.207.183-.384.275-.534.091-.148.172-.28.24-.395.023-.046.052-.098.086-.155l.12-.19-.136-.068-1.995-.757c-.436-.16-.929-.367-1.48-.62a6.126 6.126 0 01-1.066-.688c-.87-.688-1.273-1.583-1.203-2.685.023-.275.092-.573.206-.895.23-.596.516-1.101.86-1.514a2.89 2.89 0 01.894-.723c.276-.183.597-.275.963-.275.32 0 .63.075.929.223.298.15.527.328.688.534.297.39.458.826.482 1.308a6.96 6.96 0 01-.379 2.787c-.092.299-.184.574-.275.826-.092.253-.172.482-.24.689a.116.116 0 00-.035.086.118.118 0 01-.035.086l.24.138 2.168.757c.32.137.561.23.722.275.252.046.493.253.723.62a.533.533 0 01.068.206.617.617 0 01-.103.31c-.069.16-.16.322-.275.482-.253.39-.516.884-.791 1.48a37.99 37.99 0 00-.757 2.03l-.378 1.343c-.138.55-.23.963-.276 1.239-.023.115-.126.78-.31 1.996-.045.298-.068.745-.068 1.342 0 .184.011.333.035.448h.034c.046-.046.069-.08.069-.104l.275-1.032c.229-.918.585-1.95 1.067-3.098a88.686 88.686 0 011.066-2.58 5.59 5.59 0 01.189-.414c.08-.16.166-.344.258-.55.183-.322.31-.563.378-.723.229-.436.579-1.027 1.05-1.773.47-.745.865-1.348 1.186-1.807l.138-.172c.114-.137.24-.172.378-.103.023 0 .103.023.24.069.023.069.064.15.121.24a.978.978 0 01.12.276l-.103.172c-.344.528-1.032 1.71-2.064 3.545-.206.367-.373.688-.498.964-.127.275-.236.505-.327.688l-.413.964-.653 1.652c-.482 1.192-.826 2.271-1.032 3.235a30.413 30.413 0 00-.447 2.099 3.876 3.876 0 01-.31.86c-.184.345-.447.483-.791.413-.39-.046-.711-.172-.963-.378zm-.481-17.037c.183-.596.297-1.101.343-1.514.023-.16.035-.379.035-.654 0-.298-.012-.516-.035-.654-.046-.39-.184-.7-.412-.93-.39.07-.688.207-.894.414l-.448.585c-.458.643-.699 1.296-.722 1.962-.046.803.24 1.422.86 1.858.046.046.23.161.55.344l.172.069c.183-.39.367-.883.55-1.48z" fill="#7E7A74"/><path d="M42.615 27.056h-.07c-.297-.023-.532-.115-.704-.275-.172-.161-.327-.39-.464-.688a4.271 4.271 0 01-.31-1.377 5.67 5.67 0 01-.034-.723 3.127 3.127 0 01-.035-.55c0-.276.023-.689.069-1.24.092-.917.184-1.605.275-2.065l.104-.998c.115-.78.23-1.422.343-1.927.023-.344.081-.728.172-1.153.092-.424.16-.728.207-.912l.24-1.377c.252-1.33.436-2.237.55-2.719l.139-.585.687-2.443.069-.241.275-.826h-.172c-.596.115-1.1.23-1.513.344l-.757.172c-.688.184-1.192.344-1.513.482l-.585.207c-.229.068-.424.051-.584-.052-.16-.103-.241-.235-.241-.396 0-.229.16-.413.481-.55.55-.23.963-.39 1.239-.482.275-.092.745-.218 1.41-.38 1.054-.274 1.892-.458 2.51-.55l.104-.034c.069-.138.114-.264.138-.379.022-.115.045-.207.068-.275l.258-.775c.103-.31.224-.648.361-1.015.184-.55.332-.952.448-1.205l.274-.722c.253-.551.585-1.067.998-1.55.069-.068.143-.13.224-.188.08-.057.154-.12.223-.19a.91.91 0 01.516-.137c.344 0 .62.08.826.24.16.138.263.333.309.586.046.412.069.71.069.894 0 .46-.058.976-.172 1.55-.046.366-.092.665-.138.894l-.378 1.583a9.4 9.4 0 00.928-.137c.07 0 .218-.023.448-.07 1.008-.137 1.776-.217 2.304-.24.229-.023.562-.035.998-.035.252 0 .447.064.585.19.137.126.206.27.206.43 0 .275-.16.425-.482.447-.412.046-.986.092-1.72.138l-1.272.137-2.373.31-.379 1.205a1.317 1.317 0 00-.137.31c-.138.367-.368.917-.688 1.651a20.52 20.52 0 01-1.273 2.272c-.253.482-.55.94-.895 1.376-.091.138-.16.299-.206.482a38.714 38.714 0 01-.344 1.859c-.046.16-.092.447-.138.86l-.24 1.446a60.49 60.49 0 00-.62 3.648c-.045.23-.091.574-.136 1.032l-.138 1.274c-.046.459-.069 1.136-.069 2.03-.046.07-.046.127 0 .173l.069.069c.252-.207.458-.448.62-.723.503-.804.916-1.549 1.237-2.237a61.54 61.54 0 001.342-3.408c.183-.504.452-1.284.808-2.34.355-1.055.636-1.95.843-2.685a.932.932 0 01.275-.412.55.55 0 01.344-.138c.138 0 .246.063.327.19.08.126.097.291.051.498l-.412 1.48c-.367 1.377-.585 2.157-.654 2.34-.413 1.17-.929 2.547-1.547 4.13-.184.367-.413.918-.689 1.652-.343.643-.653 1.17-.928 1.583-.184.299-.39.562-.619.792-.069.091-.241.23-.516.413a.754.754 0 01-.396.103h-.292l-.138-.068zm3.13-17.776c.137-.264.297-.59.481-.981.069-.138.138-.304.207-.499.069-.195.137-.384.206-.568.046-.138.149-.413.31-.826l-.585.103c-.092.23-.15.402-.172.517l-.481 1.79-.241.963a7.27 7.27 0 00.275-.5zM47.327 5.2c.229-.848.4-1.537.516-2.065.114-.527.16-.952.137-1.273-.046.023-.092.092-.137.206-.115.322-.368 1.056-.757 2.203l-.31 1.033.551-.104z" fill="#7E7A74"/></svg><svg viewBox="0 0 20 20" id="icon-call" xmlns="http://www.w3.org/2000/svg"><path fill-rule="evenodd" clip-rule="evenodd" d="M15.605 12.364c-1.59-1.19-2.41-1.78-2.443-1.76-.028.016-.53.389-1.115.828l-1.064.799-.27-.036a3.353 3.353 0 01-1.93-.978 3.353 3.353 0 01-.978-1.93l-.036-.27.799-1.064c.44-.586.812-1.087.829-1.115.02-.033-.57-.852-1.761-2.443C6.65 3.079 5.832 2 5.817 2a70.9 70.9 0 00-1.74.841c-1.842.908-1.881.933-2.02 1.297-.06.158-.066.293-.048 1.27.02 1.151.068 1.626.248 2.505a12.856 12.856 0 002.25 5c2.08 2.764 5.063 4.51 8.527 4.994.3.042.85.072 1.558.084.977.018 1.112.013 1.27-.048.364-.139.39-.178 1.297-2.019.463-.94.842-1.723.841-1.739 0-.016-1.079-.836-2.395-1.82zm.304 3.295l-.547 1.106h-.667c-2.593 0-4.925-.793-7.034-2.392-.497-.377-1.657-1.537-2.035-2.034-1.598-2.11-2.39-4.441-2.39-7.035v-.668l1.107-.546c.609-.301 1.11-.542 1.115-.537.263.34 2.416 3.232 2.416 3.245 0 .01-.306.427-.68.924l-.68.906.024.4c.077 1.249.566 2.308 1.456 3.157.816.778 1.81 1.205 2.977 1.277l.401.025.906-.68c.497-.375.913-.681.924-.681.017 0 3.248 2.407 3.252 2.422 0 .004-.245.504-.545 1.111z"/></svg><svg viewBox="0 0 32 32" id="like" xmlns="http://www.w3.org/2000/svg"><path fill-rule="evenodd" clip-rule="evenodd" d="M10.777 8.06a5.357 5.357 0 00-2.081.835c-.411.276-1.075.948-1.35 1.366a5.317 5.317 0 00-.796 1.943c-.048.263-.058.49-.045 1.104.015.678.029.819.112 1.135.183.693.452 1.26.875 1.842.127.175 1.788 1.884 4.37 4.498L16.025 25l3.95-3.99c2.172-2.196 4.075-4.135 4.228-4.31.629-.72 1-1.467 1.211-2.441.114-.526.113-1.522-.002-2.066-.223-1.058-.69-1.945-1.402-2.667a4.513 4.513 0 00-1.273-.937c-.694-.352-1.302-.506-2.115-.536-.888-.033-1.596.11-2.36.479-.62.299-.966.556-1.633 1.216l-.605.6-.623-.62c-.684-.68-1.018-.93-1.65-1.234a5.14 5.14 0 00-2.975-.434zm1.47 1.355a4.04 4.04 0 011.294.492c.257.155.484.361 1.397 1.275l1.09 1.09 1.032-1.04c1.099-1.106 1.342-1.303 1.89-1.534.548-.23.792-.277 1.469-.28.686-.004.976.052 1.53.295 2.23.976 2.965 3.84 1.49 5.804-.13.173-1.729 1.818-3.818 3.93l-3.595 3.633-3.613-3.652c-2.106-2.127-3.708-3.777-3.84-3.953a3.876 3.876 0 01-.598-3.426c.57-1.842 2.392-2.966 4.272-2.634z"/></svg><svg fill="none" viewBox="0 0 1920 1477" id="line-one" xmlns="http://www.w3.org/2000/svg"><path d="M1976 1c-26.5 872-652.5 920.5-1151.5 932C325.499 944.5 97 760.5 46.5 651.5s-14-325 209.999-228.5c224 96.5 266.001 527 178.001 707-88 180-335.3 331.3-470.5 346.5" stroke="#D5D1CD"/></svg><svg fill="none" viewBox="0 0 511 532" id="line-sm_one" xmlns="http://www.w3.org/2000/svg"><path d="M1 0c0 294.5 184.5 348.5 310 348.5s221-56.5 253-100 7.589-131.36-72.236-96.631c-79.824 34.728-94.792 189.655-63.432 254.433C459.692 471.08 547.82 525.53 596 531" stroke="#D5D1CD"/></svg><svg fill="none" viewBox="0 0 768 457" id="line-sm_two" xmlns="http://www.w3.org/2000/svg"><path d="M1068 1.001c-86.584 302.92-682.004 367.176-820.687 268.187-138.683-98.989-96.26-282.575 0-260.991 96.26 21.584 146.87 226.011 43.416 359.98C187.275 502.145-10.951 464.684-37 375.867" stroke="#D5D1CD"/></svg><svg fill="none" viewBox="0 0 1920 918" id="line-three" xmlns="http://www.w3.org/2000/svg"><path d="M1955 .498c-174.5 610.5-1374.5 740-1654 540.5S107-28.5 301 15s296 455.499 87.5 725.498c-208.5 270.002-608 194.5-660.5 15.5" stroke="#D5D1CD"/></svg><svg fill="none" viewBox="0 0 1920 889" id="line-two" xmlns="http://www.w3.org/2000/svg"><path d="M2042.5 689c-317.5 210-894.5 330.5-864-37s615-454 435.5-204S110.5 652-219 1" stroke="#D5D1CD"/></svg><svg viewBox="0 0 72 30" id="logo" xmlns="http://www.w3.org/2000/svg"><path d="M.003 29.418C.03 29.3.23 28.234.446 27.05c.669-3.648 1.24-5.687 2.15-7.675 1.457-3.176 3.63-5.297 5.764-5.627a5.353 5.353 0 012.405.23c.9.318 1.829 1.126 2.348 2.044.276.489.695 1.643.894 2.466.139.573.143.578.607.778.896.385 1.694 1.583 1.905 2.863.286 1.73-.723 3.581-2.426 4.452-.69.352-.705.355-1.706.352-1.134-.004-1.598-.136-3.192-.908-1.758-.852-3.122-.904-4.655-.176-.994.473-1.824 1.129-3.64 2.876-.7.674-.932.854-.897.694zm2.762-3.438a12.345 12.345 0 011.616-1.036c1.625-.821 2.548-.784 5.308.211 2.469.89 4.307.828 5.182-.176.52-.596.687-1.036.73-1.914.074-1.506-.502-2.429-1.687-2.704-.826-.192-1.618.194-1.618.79 0 .218.358.67.613.775.115.047.115.065-.001.153-.123.094-.229.088-.855-.048-.214-.046-.254-.017-.349.254a2.112 2.112 0 01-.392.61c-.67.716-1.5.814-2.962.353-1.112-.35-2.34-.445-3.038-.233-.409.125-.44.123-.37-.012.041-.082.26-.72.487-1.418.754-2.321 1.283-3.177 2.286-3.698 1.417-.737 2.822-.475 4.1.764l.561.545.974-.21-.057-.333c-.091-.531-.384-1.377-.679-1.958-.794-1.569-2.19-2.341-3.965-2.194-1.133.094-1.977.565-3.116 1.738-1.323 1.363-2.188 3.087-2.857 5.694-.267 1.04-.962 4.336-.962 4.56 0 .234.222.126 1.051-.513zm8.041-3.488c.218-.116.51-.334.65-.486l.252-.277-.187-.451c-.103-.249-.187-.538-.187-.643 0-.18.22-.673.457-1.02.09-.131.061-.204-.183-.466-.529-.566-1.096-.815-1.948-.858-1.268-.063-2.007.334-2.706 1.457-.32.513-.796 1.597-.91 2.073l-.058.236.597.002c.434 0 .87.089 1.602.324.553.178 1.104.343 1.225.366.377.073.984-.04 1.396-.257zM70.76 28.42c-1.466-1.408-2.366-2.113-3.235-2.533-1.593-.77-2.936-.731-4.727.137-1.595.772-2.058.904-3.192.908-1.002.003-1.016 0-1.706-.352-1.703-.87-2.712-2.722-2.426-4.452.21-1.27 1.01-2.478 1.89-2.858l.453-.195.29-1.012c.393-1.376.796-2.211 1.387-2.873.779-.873 1.637-1.309 2.86-1.454 1.773-.21 3.276.49 4.901 2.282 2.071 2.282 3.279 5.424 4.336 11.28.198 1.098.376 2.046.396 2.109.073.231-.116.078-1.227-.987zm-.48-1.88c0-.173-.643-3.3-.88-4.274-.417-1.726-1.078-3.43-1.726-4.454-.361-.57-.514-.781-.781-1.079-.157-.175-.286-.343-.286-.375-.001-.081-1.174-1.068-1.513-1.273-.88-.531-1.805-.709-2.839-.543-1.435.23-2.342.988-3.067 2.567-.24.524-.587 1.782-.513 1.86.017.017.254.078.526.134.485.101.5.098.678-.136.69-.91 1.836-1.51 2.876-1.507.855.002 1.855.47 2.438 1.142.56.646.751 1.06 1.418 3.073.525 1.583.507 1.44.161 1.348-.163-.043-.73-.074-1.259-.069-.824.008-1.086.05-1.83.296-1.064.352-1.768.387-2.357.118-.46-.212-.882-.642-1.066-1.09-.105-.258-.156-.296-.322-.24-.379.125-.751.154-.898.068-.129-.074-.105-.114.168-.289.533-.342.638-.766.28-1.137-.641-.665-2.056-.368-2.676.562-.304.456-.43.924-.435 1.613-.005.761.175 1.332.604 1.919.364.497.74.738 1.405.905 1.008.252 2.17.075 4.252-.648.776-.27 1.678-.538 2.005-.597 1.241-.224 2.708.129 3.677.885.149.116.316.21.372.21.055 0 .1.039.1.085 0 .047.07.108.154.135.084.028.251.144.371.257.57.54.962.757.962.534zm-6.632-4.15c.68-.226 1.196-.338 1.646-.358.361-.016.666-.032.677-.034.012-.003-.076-.274-.195-.603-.507-1.395-1.22-2.403-2-2.828-.391-.213-.551-.245-1.236-.246-.692 0-.846.03-1.269.255-.264.14-.626.401-.803.58l-.323.324.224.305c.316.43.36.977.121 1.536l-.189.443.289.256c.158.141.485.355.725.477.623.313 1.137.29 2.333-.107zm-27.958 5.656c-.647-1.246-1.352-2.127-2.36-2.951a12.39 12.39 0 01-1.075-1.005l-.461-.504-1.375.47c-3.007 1.03-4.24 1.248-5.534.983-2.14-.44-3.232-1.068-5.767-3.321-.745-.663-1.578-1.375-1.85-1.584l-.493-.38.494-.25c.69-.349 2.111-1.333 2.111-1.462 0-.06-.056-.157-.126-.216-.254-.219-1.18-1.716-1.831-2.96-1.675-3.197-2.336-5.785-2.976-11.646a81.013 81.013 0 01-.193-1.869c.006-.005.68.165 1.497.379 1.858.485 2.834.84 3.883 1.408.451.245.85.445.884.445.035 0 .087-.147.115-.327.038-.242.538-1.51.722-1.83.014-.025 1.052.726 1.627 1.175.129.101.34.343.471.538.13.194.28.352.334.35.053-.003.205-.238.336-.522.13-.285.333-.638.448-.787l.21-.269.47.12c.97.25 2.851 1.304 4.218 2.365.33.256.639.452.686.436.047-.016.155-.232.241-.48.086-.248.424-1.013.75-1.699.534-1.12.61-1.236.745-1.134 1.35 1.03 1.976 1.678 2.276 2.361.06.136.157.248.216.248.094 0 1.146-2.388 1.448-3.288.062-.187.135-.34.162-.34.027 0 .143.255.258.567.516 1.395 1.264 3.06 1.375 3.06.066 0 .12-.036.12-.08 0-.044.162-.332.36-.64.242-.375.646-.797 1.233-1.286.48-.4.884-.714.899-.698.124.139 1.367 2.898 1.409 3.13.031.175.107.3.18.3.07 0 .41-.216.756-.479 1.532-1.166 3.233-2.125 4.164-2.348l.464-.11.25.312c.136.172.338.526.448.787.11.261.246.475.303.476.056.001.184-.137.285-.306.2-.337.609-.7 1.519-1.352.631-.452.673-.474.673-.342 0 .046.143.403.317.793.174.39.337.863.361 1.05.054.41.136.42.742.085 1.219-.675 2.942-1.337 4.861-1.868l.815-.225-.047.244c-.026.135-.128 1.02-.226 1.968-.359 3.46-.917 6.33-1.629 8.389-.556 1.606-1.871 4.16-2.807 5.45-.255.35-.462.666-.462.7 0 .095 1.557 1.149 2.111 1.428l.494.25-.494.379c-.271.208-1.005.839-1.63 1.4-2.154 1.936-3.36 2.74-4.81 3.206-2.025.65-2.927.568-6.411-.59l-1.689-.56-.454.506c-.25.278-.71.71-1.023.96a8.956 8.956 0 00-2.439 3.081c-.104.212-.22.386-.26.386-.04 0-.183-.215-.319-.477zm1.308-2.403c.483-.486 1.203-1.124 1.598-1.417.572-.423.765-.627.94-.992.626-1.303-.115-2.873-1.356-2.873-.535 0-.871.374-.871.97 0 .259.058.527.141.65.12.178.204.205.557.179.408-.03.413-.028.29.167-.53.836-1.462.52-1.699-.574-.255-1.183.565-2.209 1.765-2.209h.502l.524-.838c.766-1.227 1.106-1.913 1.428-2.88.277-.83.287-.913.292-2.312.004-1.272-.021-1.535-.2-2.131-.371-1.242-1.263-2.79-2.606-4.521-.933-1.203-1.604-2.33-1.937-3.256-.143-.397-.282-.65-.35-.636-.062.013-.248.348-.414.744-.43 1.03-1.024 2.013-1.885 3.121-1.355 1.746-2.253 3.289-2.62 4.502-.275.91-.338 2.666-.13 3.639.284 1.323.852 2.56 1.906 4.158l.298.45.567.003c.751.004 1.216.305 1.521.983.253.563.266.977.046 1.478-.387.884-1.085 1.03-1.566.33l-.172-.249.417.03c.356.027.439 0 .56-.178.083-.123.141-.391.141-.65 0-.37-.043-.485-.266-.716-.244-.253-.305-.273-.73-.236-.595.05-.937.304-1.227.907-.162.339-.225.611-.224.974.004.9.355 1.409 1.59 2.304.323.234.91.771 1.306 1.194.396.423.779.77.852.77.072 0 .528-.399 1.012-.885zm-1.284-1.117c-.394-.238-.353-.777.074-.98.269-.127.59.016.724.321.208.472-.348.93-.798.659zm-.023-5.252c-.582-.135-.88-.492-.652-.777.091-.115.143-.108.389.05.305.195.79.233 1.247.097.334-.1.36-.022.086.245-.293.286-.766.456-1.07.385zm-.155-1.864c-.18-.127-.326-.246-.326-.265a.918.918 0 00-.05-.171c-.046-.121-.004-.122.367-.006.405.126 1.153.07 1.459-.11.057-.035-.014.07-.158.232-.273.305-.65.55-.85.55-.063 0-.262-.104-.442-.23zm.155-1.662a2.31 2.31 0 01-.437-.377l-.175-.208.218.062c.65.184 1.033.173 1.361-.037.31-.2.33-.201.441-.045.159.225.014.482-.363.646-.4.173-.73.16-1.045-.04zm-.107-1.873a1.984 1.984 0 01-.372-.404l-.183-.266.405.143c.39.138 1.002.13 1.372-.019.285-.114.157.135-.21.41-.4.302-.724.345-1.012.136zm-.152-1.958c-.38-.345-.388-.424-.042-.372.148.023.508-.011.8-.076.492-.108.54-.104.651.053.163.231.117.331-.237.518-.458.241-.813.204-1.172-.123zm.015-1.813c-.226-.228-.302-.35-.197-.313.505.173.916.162 1.237-.034.257-.157.34-.174.397-.08.16.262-.001.564-.373.698-.476.172-.675.122-1.064-.271zm.19-1.76a1.259 1.259 0 01-.373-.358l-.146-.231h.462c.253 0 .613-.045.8-.098.202-.059.37-.065.417-.015.117.12-.254.566-.593.713-.34.148-.284.149-.566-.01zm.139-2.285c-.134-.293-.139-.364-.032-.56.178-.326.308-.329.416-.008.074.22.067.355-.03.594-.068.17-.141.31-.162.31-.021 0-.108-.151-.192-.336zm-8 18.03a48.395 48.395 0 002.241-.7l1.498-.504.053-.65c.03-.357.077-.776.106-.929.052-.276.048-.28-.458-.396-.28-.065-.78-.218-1.108-.34l-.598-.223-.32.216a4.903 4.903 0 01-1.714.696c-2.05.39-4.972-.476-6.842-2.029-.392-.326-.756-.593-.808-.593-.052 0-.262.133-.468.295-.206.162-.56.397-.788.521-.228.125-.414.272-.414.327 0 .186 2.834 2.663 3.733 3.262a8.668 8.668 0 002.922 1.216c.624.136 2.138.05 2.965-.17zm-2.449-.977c-.534-.1-1.421-.45-2.208-.873-.47-.251-.841-.47-.827-.484.013-.014.319.053.677.15 1.357.365 2.471.479 4.099.416a57.633 57.633 0 002.01-.103l.491-.046-.612.232c-1.232.468-3.035.82-3.63.708zm22.651.926c1.123-.35 2.045-.855 3.064-1.68.846-.684 2.796-2.482 2.796-2.578 0-.055-.182-.2-.405-.322a6.823 6.823 0 01-.782-.522c-.207-.164-.419-.299-.47-.299-.051 0-.417.269-.814.596-2.544 2.101-6.43 2.737-8.478 1.386l-.41-.27-.77.272c-.424.15-.922.3-1.107.335-.309.058-.331.082-.28.3.03.131.079.55.106.932l.05.695 1.498.509c2.333.793 3.144.966 4.297.918.69-.029 1.172-.106 1.705-.272zm-2.46-.963c-.672-.103-1.719-.387-2.612-.711l-.744-.27 1.006.063c1.878.117 4.782.065 5.641-.102 1.007-.195 1.046-.19.554.076-.704.38-1.68.75-2.373.898-.724.155-.747.156-1.472.046zm1.936-3.141c1.45-.351 2.921-1.314 4.461-2.92 2.223-2.32 3.288-4.532 4.072-8.46.367-1.833.915-5.995.806-6.108-.074-.077-1.578.382-2.57.783-1.654.67-3.115 1.545-4.574 2.742l-.734.602-.017 2.065c-.019 2.37-.111 3.14-.537 4.468-.737 2.301-2.112 4.424-3.754 5.795-.382.32-.707.632-.722.694-.034.145.673.39 1.396.485.672.088 1.411.038 2.173-.146zm.128-2.863c.409-.62.802-1.072 1.42-1.632 2.464-2.228 3.01-3.097 4.611-7.321.312-.823.569-1.464.571-1.424.01.193-.66 2.764-.994 3.817-.499 1.572-.89 2.354-1.746 3.498-1.214 1.62-2.483 2.794-3.924 3.628l-.502.291.564-.857zm-20.034 2.832c.318-.101.578-.234.577-.294 0-.06-.28-.334-.622-.609-2.104-1.689-3.905-4.906-4.291-7.663-.066-.473-.115-1.64-.115-2.774V6.606l-.686-.577a17.45 17.45 0 00-4.772-2.855c-.905-.362-2.37-.799-2.44-.726-.065.067.205 2.435.475 4.173.788 5.07 1.861 7.681 4.185 10.187 1.479 1.595 3.088 2.69 4.552 3.1.877.244 2.367.242 3.137-.005zm-3.353-2.447c-1.476-.93-2.47-1.872-3.668-3.476-.835-1.12-1.23-1.913-1.723-3.469-.337-1.064-1.005-3.63-.993-3.817.003-.04.26.6.57 1.424 1.175 3.111 1.575 3.929 2.514 5.134.545.7 1.653 1.831 2.549 2.601.242.208.685.757.983 1.219.299.462.532.84.518.84-.014 0-.352-.205-.75-.456zm8.041 2.365c0-.047-.231-.467-.514-.932-1.071-1.764-1.802-3.58-1.907-4.74-.134-1.49.495-3.47 1.775-5.588.26-.429.471-.83.471-.89 0-.134-.23-.338-1.756-1.558-2.28-1.822-4.665-3.346-5.236-3.346-.219 0-.284.065-.478.476-.549 1.163-.904 3.565-.807 5.448.107 2.054.551 3.617 1.643 5.775 1.18 2.334 2.682 3.984 4.372 4.804.933.453 2.437.793 2.437.551zm-3.023-2.47c-2.728-2.943-3.535-5.816-2.91-10.354l.115-.829.101 2.086c.058 1.185.166 2.399.25 2.811.294 1.447 1.188 3.28 2.5 5.124.675.95.74 1.106.633 1.534l-.073.292-.616-.664zm11.733 2.373c2.746-.728 4.904-3.111 6.473-7.147.73-1.88.965-3.885.725-6.201-.118-1.137-.439-2.492-.741-3.133-.284-.602-.45-.614-1.424-.109-1.493.775-6.028 4.168-6.042 4.52-.002.07.21.48.474.913.64 1.051 1.304 2.515 1.545 3.405.149.548.198.97.2 1.723.002.89-.028 1.087-.277 1.831-.333.997-.964 2.317-1.633 3.416-.268.442-.488.84-.488.884 0 .132.45.093 1.188-.102zm1.132-2.067c-.071-.435-.052-.475.746-1.618 1.016-1.455 1.674-2.652 2.048-3.728.394-1.131.497-1.822.604-4.012l.103-2.131.16 1.217c.503 3.82-.13 6.425-2.21 9.09-.287.366-.717.864-.956 1.107l-.436.44-.06-.365zM33.129 6.409c.492-.631.853-1.265.854-1.498.001-.094-.135-.362-.301-.597-.42-.594-1.674-1.819-1.862-1.819-.146 0-.625 1-1.128 2.35l-.148.399.342.28c.189.155.618.534.955.842.337.309.672.564.744.567.072.003.317-.233.544-.524zm7.027-.056c.356-.322.77-.68.92-.793.234-.18.266-.252.23-.526-.062-.49-.96-2.487-1.132-2.521-.268-.054-1.926 1.677-2.121 2.214-.07.194-.041.32.164.703.325.608 1.027 1.508 1.175 1.508.064 0 .407-.263.764-.585zm-16.68-1.462l.19-.778-.18-.262c-.351-.512-1.82-1.596-2.044-1.508-.127.051-.488 1.104-.488 1.425 0 .162 2.03 1.881 2.238 1.895.052.003.18-.344.285-.772zm26.059.25c.37-.29.86-.659 1.088-.82.277-.195.415-.357.415-.486 0-.316-.382-1.449-.505-1.498-.218-.087-1.909 1.202-2.123 1.619-.095.183.24 1.713.374 1.713.043 0 .38-.237.75-.527z"/></svg><svg viewBox="0 0 29 17" id="menu" xmlns="http://www.w3.org/2000/svg"><path d="M0 .5h29M0 8.5h29M0 16.5h29"/></svg><svg viewBox="0 0 24 24" id="search" xmlns="http://www.w3.org/2000/svg"><path fill-rule="evenodd" clip-rule="evenodd" d="M9.682 1.817c-1.494.186-2.84.68-4.033 1.483-2.372 1.594-3.729 3.982-3.841 6.759-.102 2.503.8 4.84 2.54 6.59a8.714 8.714 0 0010.097 1.617c.321-.162 1.068-.638 1.47-.935.105-.079.225.032 2.585 2.393l2.474 2.476.613-.612.613-.611-2.48-2.483-2.482-2.482.134-.159c.205-.245.713-1.047.902-1.423 1.688-3.365 1.031-7.444-1.624-10.088a8.67 8.67 0 00-4.627-2.43c-.45-.081-1.958-.143-2.341-.095zm2.15 1.844c2.808.58 4.89 2.652 5.505 5.485.136.624.138 2.068.004 2.693a7.142 7.142 0 01-.673 1.868c-.703 1.364-1.695 2.333-3.095 3.022-2.013.992-4.246.98-6.231-.033-1.92-.979-3.224-2.712-3.682-4.895-.135-.639-.135-1.974 0-2.613.289-1.376.88-2.515 1.802-3.477a7.01 7.01 0 014.146-2.128c.516-.071 1.7-.03 2.224.078z"/></svg><svg viewBox="0 0 32 32" id="shop" xmlns="http://www.w3.org/2000/svg"><path fill-rule="evenodd" clip-rule="evenodd" d="M15.71 6.005c-1.654.151-2.979 1.267-3.389 2.854-.066.258-.082.466-.098 1.344l-.02 1.04H8.89v.123c0 .068-.2 3.238-.445 7.043A2311.66 2311.66 0 008 25.414v.086h16v-.086c0-.047-.2-3.198-.445-7.003-.244-3.804-.444-6.974-.444-7.043v-.126h-3.315l-.018-1.039c-.022-1.191-.061-1.413-.36-2.043-.611-1.284-1.807-2.077-3.244-2.153a4.319 4.319 0 00-.464-.002zm.944 1.22c.119.03.363.125.544.212.61.294 1.137.932 1.335 1.613.052.18.07.438.084 1.21l.019.982h-5.272l.018-.981c.015-.773.033-1.03.085-1.21.24-.827.92-1.526 1.742-1.788.44-.14.977-.155 1.445-.038zm-4.441 5.942v.782H13.372V12.386h5.256V13.949h1.16v-1.564l1.11.01 1.11.01.376 5.814c.206 3.197.376 5.886.377 5.975l.002.162H16c-5.384 0-6.764-.01-6.765-.047-.003-.11.745-11.832.758-11.875.011-.037.268-.048 1.117-.048h1.103v.781z"/></svg><svg viewBox="0 0 20 20" id="social-tel" xmlns="http://www.w3.org/2000/svg"><path fill-rule="evenodd" clip-rule="evenodd" d="M17.889 2.218c-.387.127-4.314 1.395-8.727 2.818C4.75 6.46 1.013 7.668.858 7.723c-.351.124-.596.329-.743.621-.147.294-.154.74-.015 1.005.113.217.333.445.52.54.08.04 1.107.486 2.284.991 1.178.505 2.147.925 2.154.932.007.007.312 1.371.678 3.031.365 1.66.696 3.081.734 3.159.15.3.505.398.814.225.086-.049.9-.634 1.808-1.302l1.651-1.213 1.91 1.53c1.05.842 1.995 1.576 2.1 1.632.252.135.595.164.905.075.317-.09.679-.44.775-.749.036-.116.86-3.521 1.831-7.568C20.203 2.557 20.1 3.06 19.893 2.66a1.17 1.17 0 00-1.026-.656c-.251-.014-.332.003-.978.214zm.94 1.028c-.015.058-.81 3.364-1.766 7.345a999.342 999.342 0 01-1.757 7.258c-.01.01-.05-.007-.088-.04-.037-.032-1.389-1.114-3.003-2.406s-2.95-2.36-2.966-2.375c-.017-.015 1.347-1.437 3.032-3.161 1.686-1.724 3.104-3.197 3.152-3.273a.584.584 0 00.088-.315c0-.151-.022-.202-.149-.342-.14-.154-.165-.166-.381-.18l-.233-.015-4.604 2.508-4.605 2.507-2.196-.94c-1.208-.518-2.181-.955-2.164-.972.035-.034 17.526-5.694 17.614-5.7.039-.003.046.024.026.101zm-7.064 5.467c0 .009-.874.91-1.942 2.002-1.068 1.093-1.966 2.038-1.995 2.102-.03.063-.206.64-.392 1.283-.187.643-.351 1.182-.366 1.198-.023.027-.793-3.383-.8-3.546-.003-.052.662-.431 2.736-1.56 1.506-.821 2.744-1.493 2.749-1.494.005 0 .01.006.01.015zm-2.472 5.838c.265.212.482.397.481.41 0 .041-1.706 1.284-1.717 1.253-.006-.015.096-.39.226-.831.422-1.432.387-1.336.462-1.273.036.031.282.23.548.441z"/></svg><svg viewBox="0 0 20 20" id="social-ws" xmlns="http://www.w3.org/2000/svg"><path fill-rule="evenodd" clip-rule="evenodd" d="M8.85.06C4.228.628.594 4.313.116 8.92c-.071.683-.028 1.976.087 2.629.183 1.033.485 1.942.954 2.871l.236.467-.703 2.551C.303 18.842-.007 19.994 0 20c.008.005 1.185-.298 2.617-.673 2.084-.548 2.623-.676 2.707-.644.058.022.332.142.61.267.899.405 1.844.674 2.838.808.691.093 1.904.092 2.576-.001 2.207-.307 4.178-1.277 5.732-2.82a9.368 9.368 0 001.867-2.55c.464-.905.79-1.892.973-2.937.107-.611.107-2.406 0-3.046a9.72 9.72 0 00-.936-2.9 9.971 9.971 0 00-6.849-5.3c-.932-.2-2.323-.262-3.284-.144zm2.624 1.727c1.205.22 2.203.62 3.19 1.277 1.687 1.12 2.928 2.86 3.419 4.791.36 1.418.332 3.029-.077 4.392a8.313 8.313 0 01-4.303 5.063c-1.2.582-2.31.837-3.656.837-1.543 0-2.91-.373-4.307-1.172l-.235-.135-1.545.404c-.85.221-1.552.396-1.56.389-.007-.008.167-.669.388-1.469.22-.8.403-1.484.405-1.52.002-.036-.106-.243-.241-.461C.972 10.98 1.49 6.757 4.192 4.085 5.536 2.757 7.238 1.94 9.145 1.71c.515-.063 1.799-.02 2.33.078zm-5.346 3.64c-.243.12-.686.64-.872 1.024-.364.752-.357 1.701.02 2.58.464 1.08 1.676 2.613 2.873 3.632.839.715 1.54 1.134 2.57 1.535 1.052.41 1.254.458 1.952.458.55 0 .636-.01.892-.106.42-.158.733-.356 1.045-.661.242-.237.291-.311.37-.563.1-.315.156-.82.112-.996-.024-.091-.142-.165-.739-.462-1.092-.544-1.533-.731-1.72-.731-.153 0-.18.018-.365.26-.424.554-.813.982-.914 1.008-.121.03-.36-.057-.91-.332a6.45 6.45 0 01-2.246-1.836c-.34-.434-.647-.928-.647-1.043 0-.049.158-.294.351-.544.378-.49.489-.673.489-.808 0-.047-.082-.278-.182-.513a126 126 0 01-.45-1.074c-.181-.44-.31-.69-.4-.782l-.135-.136h-.456c-.381 0-.485.015-.638.09z"/></svg><svg viewBox="0 0 16 17" id="toTop" xmlns="http://www.w3.org/2000/svg"><path d="M8 7.575l-5.445 5.091L1 11.212l7-6.545 7 6.545-1.555 1.454L8 7.576z"/></svg></svg>