<svg width="80" height="81" viewBox="0 0 80 81" fill="none" xmlns="http://www.w3.org/2000/svg">
<g clip-path="url(#clip0_1677_16797)">
<path d="M32.0887 40.3988C32.5787 40.3988 32.976 39.9964 32.976 39.4999C32.976 39.0035 32.5787 38.6011 32.0887 38.6011C31.5987 38.6011 31.2015 39.0035 31.2015 39.4999C31.2015 39.9964 31.5987 40.3988 32.0887 40.3988Z" fill="#7E7A74"/>
<path fill-rule="evenodd" clip-rule="evenodd" d="M4.05673 25.9253C4.4333 26.0853 4.61056 26.5243 4.45264 26.9058C2.56589 31.4639 1.47874 36.4594 1.47874 41.7472C1.47874 62.6069 18.1533 79.5 38.7431 79.5C47.0806 79.5 54.7648 76.7093 60.9276 72.0817C61.2556 71.8354 61.7187 71.9051 61.9618 72.2375C62.205 72.5698 62.1362 73.0389 61.8081 73.2853C55.4015 78.0959 47.411 80.9981 38.7431 80.9981C17.3366 80.9981 0 63.4343 0 41.7472C0 36.2484 1.13097 31.0566 3.08895 26.3264C3.24687 25.9449 3.68016 25.7653 4.05673 25.9253Z" fill="#7E7A74"/>
<path fill-rule="evenodd" clip-rule="evenodd" d="M38.7431 3.99434C35.8351 3.99434 33.0094 4.28893 30.2628 4.94796C29.8655 5.0433 29.4671 4.79426 29.373 4.3917C29.2789 3.98914 29.5247 3.58551 29.922 3.49016C32.7947 2.80088 35.7362 2.49622 38.7431 2.49622C54.4991 2.49622 68.0646 12.0438 74.1678 25.7843C74.3354 26.1616 74.1693 26.605 73.797 26.7748C73.4246 26.9446 72.9869 26.7764 72.8193 26.3991C66.9447 13.1733 53.8928 3.99434 38.7431 3.99434Z" fill="#7E7A74"/>
<path fill-rule="evenodd" clip-rule="evenodd" d="M18.5582 0.998047C18.8206 0.998047 19.0634 1.13895 19.1961 1.36829C20.4184 3.48074 21.9271 5.44621 23.7218 7.19297C25.5785 8.9144 26.7652 11.5872 26.7652 14.4812C26.7652 19.5163 23.1972 23.8445 18.5582 23.8445C13.9154 23.8445 10.3512 19.5118 10.3512 14.4063C10.3512 11.5092 11.5405 8.83376 13.4006 7.11253C15.1886 5.4458 16.6963 3.48375 17.9204 1.36829C18.0531 1.13895 18.2958 0.998047 18.5582 0.998047ZM18.5581 3.17647C17.3911 5.0087 16.006 6.7198 14.4008 8.21597L14.3987 8.21789L14.3987 8.21789C12.8583 9.64276 11.8299 11.9107 11.8299 14.4063C11.8299 18.8888 14.9201 22.3464 18.5582 22.3464C22.2002 22.3464 25.2865 18.8843 25.2865 14.4812C25.2865 11.9856 24.2581 9.71767 22.7177 8.29279C22.7132 8.28858 22.7087 8.28431 22.7042 8.27998C21.1066 6.72619 19.7247 5.00958 18.5581 3.17647Z" fill="#BC9E78"/>
<path fill-rule="evenodd" clip-rule="evenodd" d="M3.83947 7.13506C4.02708 6.94499 4.30085 6.87133 4.55682 6.94206C6.92694 7.59693 9.36772 7.88752 11.7336 7.81489L11.756 8.56361L11.7329 7.81491C14.3021 7.73357 16.9398 8.71111 19.0071 10.8055C22.5631 14.4081 22.9726 19.9734 19.753 23.3187C16.5123 26.6862 10.9311 26.1656 7.38845 22.5764C5.31932 20.4802 4.35618 17.7319 4.4366 15.2061C4.43682 15.1995 4.43711 15.1929 4.4375 15.1863C4.58026 12.7275 4.29513 10.2622 3.64896 7.86182C3.57915 7.60249 3.65185 7.32514 3.83947 7.13506ZM5.3738 8.68981C5.84556 10.8457 6.04169 13.0525 5.91428 15.264C5.84958 17.3799 6.66117 19.7209 8.43408 21.5171C11.5457 24.6695 16.1679 24.898 18.6943 22.2729C21.2418 19.6257 21.0598 15.0038 17.9615 11.8648C16.184 10.064 13.9419 9.24383 11.7791 9.31231L11.7784 9.31233C9.66536 9.3772 7.50077 9.16948 5.3738 8.68981Z" fill="#BC9E78"/>
<path fill-rule="evenodd" clip-rule="evenodd" d="M33.203 7.13506C33.3907 7.32514 33.4634 7.60249 33.3935 7.86182C32.7472 10.2628 32.4604 12.7353 32.532 15.132C32.6123 17.7348 31.6474 20.4072 29.5801 22.5015C26.0241 26.1041 20.5308 26.519 17.2288 23.2572C13.9049 19.974 14.4188 14.3197 17.9615 10.7306C20.0306 8.63431 22.7433 7.65855 25.2364 7.74003C25.2429 7.74024 25.2495 7.74054 25.256 7.74093C27.683 7.88556 30.1164 7.5967 32.4857 6.94206C32.7417 6.87133 33.0154 6.94499 33.203 7.13506ZM25.1792 9.23707C23.0907 9.17153 20.78 9.99375 19.0071 11.7899C15.8954 14.9423 15.6699 19.6251 18.2611 22.1846C20.874 24.7656 25.4361 24.5812 28.5345 21.4422C30.312 19.6414 31.1216 17.3699 31.054 15.1788L31.0539 15.1781C30.9899 13.0373 31.1949 10.8444 31.6684 8.68951C29.5404 9.16745 27.3621 9.36615 25.1792 9.23707Z" fill="#BC9E78"/>
<path fill-rule="evenodd" clip-rule="evenodd" d="M12.5693 25.867C12.5693 25.4533 12.9003 25.1179 13.3087 25.1179H23.8078C24.2161 25.1179 24.5471 25.4533 24.5471 25.867V39.4999C24.5471 39.9136 24.2161 40.249 23.8078 40.249H13.3087C12.9003 40.249 12.5693 39.9136 12.5693 39.4999V25.867ZM14.048 26.616V38.7509H23.0684V26.616H14.048Z" fill="#7E7A74"/>
<path fill-rule="evenodd" clip-rule="evenodd" d="M0 39.4999C0 39.0862 0.331028 38.7509 0.739372 38.7509H28.9094C29.3178 38.7509 29.6488 39.0862 29.6488 39.4999C29.6488 39.9136 29.3178 40.249 28.9094 40.249H0.739372C0.331028 40.249 0 39.9136 0 39.4999Z" fill="#7E7A74"/>
<path fill-rule="evenodd" clip-rule="evenodd" d="M49.8374 28.4138H65.1348C64.833 27.128 63.6881 26.1666 62.329 26.1666H52.6432C51.2842 26.1666 50.1393 27.128 49.8374 28.4138ZM48.2809 29.0879C48.2809 26.6518 50.2386 24.6685 52.6432 24.6685H62.329C64.7337 24.6685 66.6913 26.6518 66.6913 29.0879V29.1628C66.6913 29.5765 66.3603 29.9119 65.9519 29.9119H49.0203C48.612 29.9119 48.2809 29.5765 48.2809 29.1628V29.0879Z" fill="#7E7A74"/>
<path fill-rule="evenodd" clip-rule="evenodd" d="M44.5102 39.8744C44.5102 39.4607 44.8412 39.1254 45.2496 39.1254H47.7634C51.2032 39.1254 54.0481 42.0075 54.0481 45.4924V45.6422H53.3087V46.3913H45.2496C44.8412 46.3913 44.5102 46.0559 44.5102 45.6422V39.8744ZM52.532 44.8932C52.2339 42.5106 50.1865 40.6235 47.7634 40.6235H45.9889V44.8932H52.532Z" fill="#7E7A74"/>
<path fill-rule="evenodd" clip-rule="evenodd" d="M40 39.8744C40 39.4607 40.331 39.1254 40.7394 39.1254H43.6229C43.7865 39.1254 43.9455 39.1804 44.075 39.2817L45.7016 40.5551C45.8828 40.697 45.9889 40.9159 45.9889 41.1478V44.3688C45.9889 44.6008 45.8828 44.8197 45.7016 44.9615L44.075 46.2349C43.9455 46.3363 43.7865 46.3913 43.6229 46.3913H40.7394C40.331 46.3913 40 46.0559 40 45.6422V39.8744ZM41.4787 40.6235V44.8932H43.3705L44.5102 44.001V41.5157L43.3705 40.6235H41.4787Z" fill="#7E7A74"/>
<path fill-rule="evenodd" clip-rule="evenodd" d="M45.3235 45.6423C45.3235 45.2286 45.6545 44.8932 46.0629 44.8932H49.2422C49.6505 44.8932 49.9815 45.2286 49.9815 45.6423V53.3576C49.9815 53.7713 49.6505 54.1067 49.2422 54.1067C48.8338 54.1067 48.5028 53.7713 48.5028 53.3576V46.3913H46.8022V54.3314C46.8022 54.7451 46.4712 55.0805 46.0629 55.0805C45.6545 55.0805 45.3235 54.7451 45.3235 54.3314V45.6423Z" fill="#7E7A74"/>
<path fill-rule="evenodd" clip-rule="evenodd" d="M69.6488 44.1441C68.938 44.1441 68.3179 44.7563 68.3179 45.5673C68.3179 46.3784 68.938 46.9906 69.6488 46.9906C70.3596 46.9906 70.9797 46.3784 70.9797 45.5673C70.9797 44.7563 70.3596 44.1441 69.6488 44.1441ZM66.8392 45.5673C66.8392 43.9789 68.0728 42.646 69.6488 42.646C71.2247 42.646 72.4584 43.9789 72.4584 45.5673C72.4584 47.1558 71.2247 48.4887 69.6488 48.4887C68.0728 48.4887 66.8392 47.1558 66.8392 45.5673Z" fill="#7E7A74"/>
<path fill-rule="evenodd" clip-rule="evenodd" d="M68.5942 36.8639C68.7918 37.0041 68.9094 37.2331 68.9094 37.4775V41.7131L69.6488 42.3873L70.3882 41.7131V37.4775C70.3882 37.2311 70.5077 37.0005 70.708 36.8607C70.9082 36.7209 71.1635 36.6898 71.3907 36.7775C73.2308 37.4876 74.6026 39.4145 74.6026 41.5973C74.6026 43.4255 73.6605 45.0903 72.2588 45.9778C71.9125 46.1971 71.4563 46.0904 71.2399 45.7396C71.0235 45.3888 71.1288 44.9267 71.475 44.7074C72.4393 44.0969 73.1238 42.9152 73.1238 41.5973C73.1238 40.4818 72.6172 39.465 71.8669 38.7968V42.0467C71.8669 42.2591 71.7779 42.4615 71.6221 42.6035L70.1434 43.9518C69.8622 44.2082 69.4354 44.2082 69.1542 43.9518L67.6754 42.6035C67.5196 42.4615 67.4307 42.2591 67.4307 42.0467V38.7691C66.6624 39.4314 66.1738 40.4552 66.1738 41.5973C66.1738 42.9108 66.8534 44.0855 67.8795 44.697C68.2315 44.9067 68.3489 45.3658 68.1419 45.7224C67.9349 46.079 67.4817 46.198 67.1297 45.9883C65.642 45.1017 64.695 43.4299 64.695 41.5973C64.695 39.4307 65.9795 37.4874 67.9174 36.7735C68.144 36.69 68.3967 36.7237 68.5942 36.8639Z" fill="#7E7A74"/>
<path fill-rule="evenodd" clip-rule="evenodd" d="M71.2154 45.8566C71.5477 45.6162 72.0094 45.6941 72.2468 46.0308L72.9767 47.066C73.9052 48.2709 74.3069 49.7868 74.3069 51.2602V54.3313C74.3069 54.745 73.9758 55.0804 73.5675 55.0804C73.1591 55.0804 72.8281 54.745 72.8281 54.3313V51.2602C72.8281 50.0426 72.4936 48.8679 71.8031 47.9776C71.7962 47.9687 71.7894 47.9595 71.7828 47.9502L71.0435 46.9015C70.8061 46.5649 70.8831 46.0971 71.2154 45.8566Z" fill="#7E7A74"/>
<path fill-rule="evenodd" clip-rule="evenodd" d="M69.466 47.1446C69.8312 46.9595 70.2754 47.1095 70.458 47.4795L70.9016 48.3784C70.9016 48.3784 70.9016 48.3784 70.9016 48.3784C71.3969 49.382 71.6451 50.4705 71.6451 51.5599V53.3576C71.6451 53.7713 71.3141 54.1067 70.9057 54.1067C70.4974 54.1067 70.1663 53.7713 70.1663 53.3576V51.5599C70.1663 50.7016 69.9709 49.8426 69.579 49.0484L69.579 49.0484L69.1353 48.1495C68.9527 47.7795 69.1008 47.3296 69.466 47.1446Z" fill="#7E7A74"/>
<path fill-rule="evenodd" clip-rule="evenodd" d="M68.0083 45.7818C68.3406 46.0223 68.4175 46.4901 68.1802 46.8267L67.4408 47.8754C67.4343 47.8847 67.4275 47.8938 67.4206 47.9028C66.7301 48.7931 66.3956 49.9678 66.3956 51.1853V53.3576C66.3956 53.7713 66.0645 54.1067 65.6562 54.1067C65.2478 54.1067 64.9168 53.7713 64.9168 53.3576V51.1853C64.9168 49.7119 65.3185 48.1961 66.247 46.9912L66.9769 45.9559C67.2142 45.6193 67.676 45.5413 68.0083 45.7818Z" fill="#7E7A74"/>
<path fill-rule="evenodd" clip-rule="evenodd" d="M69.7576 47.1446C70.1229 47.3296 70.2709 47.7795 70.0883 48.1495L69.6873 48.962C69.6794 48.9895 69.6713 49.0131 69.6641 49.0326C69.6512 49.0673 69.6369 49.0996 69.6258 49.1234C69.6164 49.1608 69.6041 49.1975 69.589 49.2332C69.2 50.1528 69.0618 51.2292 69.1296 52.2591C69.13 52.2661 69.1304 52.2731 69.1307 52.2801L69.2046 54.2277C69.2203 54.6411 68.9022 54.9891 68.4942 55.005C68.0862 55.0209 67.7427 54.6987 67.727 54.2853L67.6534 52.348C67.5767 51.1614 67.726 49.8773 68.1964 48.7235C68.2068 48.6813 68.2186 48.6461 68.2287 48.6189C68.2415 48.5842 68.2558 48.5519 68.267 48.5281C68.2799 48.4766 68.2984 48.4264 68.322 48.3784L68.7657 47.4795C68.9483 47.1095 69.3924 46.9595 69.7576 47.1446Z" fill="#7E7A74"/>
<path fill-rule="evenodd" clip-rule="evenodd" d="M55.8965 48.264C55.8965 47.8503 56.2275 47.5149 56.6359 47.5149H61.3678C61.7762 47.5149 62.1072 47.8503 62.1072 48.264V50.0617C62.1072 50.3014 61.994 50.5265 61.8027 50.6675L61.2939 51.0424V54.3314C61.2939 54.7451 60.9629 55.0804 60.5545 55.0804H57.3752C56.9669 55.0804 56.6359 54.7451 56.6359 54.3314V51.021L56.174 50.6466C55.9986 50.5045 55.8965 50.2893 55.8965 50.0617V48.264ZM57.3752 49.013V49.7017L57.8371 50.076C58.0125 50.2182 58.1146 50.4334 58.1146 50.661V53.5823H59.8152V50.661C59.8152 50.4213 59.9283 50.1961 60.1196 50.0552L60.6285 49.6803V49.013H57.3752Z" fill="#7E7A74"/>
<path fill-rule="evenodd" clip-rule="evenodd" d="M56.7098 36.6535C56.7098 36.2398 57.0408 35.9044 57.4491 35.9044H60.4806C60.8889 35.9044 61.2199 36.2398 61.2199 36.6535V39.7996C61.2199 39.8948 61.202 39.9893 61.1671 40.0777L60.7763 41.0674V48.264C60.7763 48.6777 60.4453 49.013 60.0369 49.013H57.8928C57.4844 49.013 57.1534 48.6777 57.1534 48.264V41.0674L56.7627 40.0777C56.7277 39.9893 56.7098 39.8948 56.7098 39.7996V36.6535ZM58.1885 37.4025V39.6553L58.5793 40.6449C58.6142 40.7334 58.6321 40.8279 58.6321 40.9231V47.5149H59.2976V40.9231C59.2976 40.8279 59.3155 40.7334 59.3505 40.6449L59.7412 39.6553V37.4025H58.1885Z" fill="#7E7A74"/>
<path fill-rule="evenodd" clip-rule="evenodd" d="M36.8207 33.1329C36.8207 32.7192 37.1517 32.3838 37.5601 32.3838H77.4122C77.8205 32.3838 78.1515 32.7192 78.1515 33.1329V54.3314C78.1515 54.745 77.8205 55.0804 77.4122 55.0804H72.3105C71.9022 55.0804 71.5711 54.745 71.5711 54.3314C71.5711 53.9177 71.9022 53.5823 72.3105 53.5823H76.6728V33.8819H38.2994V53.5823H65.3604C65.7688 53.5823 66.0998 53.9177 66.0998 54.3314C66.0998 54.745 65.7688 55.0804 65.3604 55.0804H37.5601C37.1517 55.0804 36.8207 54.745 36.8207 54.3314V33.1329Z" fill="#7E7A74"/>
<path fill-rule="evenodd" clip-rule="evenodd" d="M34.9723 29.3876C34.9723 28.9739 35.3033 28.6385 35.7117 28.6385H79.3346C79.7429 28.6385 80.074 28.9739 80.074 29.3876V33.1329C80.074 33.5466 79.7429 33.882 79.3346 33.882H35.7117C35.3033 33.882 34.9723 33.5466 34.9723 33.1329V29.3876ZM36.451 30.1367V32.3839H78.5952V30.1367H36.451Z" fill="#BC9E78"/>
<path fill-rule="evenodd" clip-rule="evenodd" d="M34.9723 54.3313C34.9723 53.9176 35.3033 53.5823 35.7117 53.5823H79.2606C79.669 53.5823 80 53.9176 80 54.3313V69.3126C80 69.7263 79.669 70.0617 79.2606 70.0617H35.7117C35.3033 70.0617 34.9723 69.7263 34.9723 69.3126V54.3313ZM36.451 55.0804V68.5635H78.5213V55.0804H36.451Z" fill="#BC9E78"/>
</g>
<defs>
<clipPath id="clip0_1677_16797">
<rect width="80" height="80" fill="white" transform="translate(0 0.998047)"/>
</clipPath>
</defs>
</svg>
