<svg width="80" height="84" viewBox="0 0 80 84" fill="none" xmlns="http://www.w3.org/2000/svg">
<path fill-rule="evenodd" clip-rule="evenodd" d="M24.9193 19.4816C24.9193 19.0711 25.2441 18.7383 25.6446 18.7383H34.058C38.1576 18.7383 41.456 22.1186 41.456 26.32C41.456 30.5239 38.0796 33.9841 33.899 33.9017L33.8939 33.9016V33.9016L26.3699 33.6986V43.5648C26.3699 43.9754 26.0452 44.3082 25.6446 44.3082C25.2441 44.3082 24.9193 43.9754 24.9193 43.5648V33.6788H22.8885C22.4879 33.6788 22.1632 33.346 22.1632 32.9355C22.1632 32.525 22.4879 32.1922 22.8885 32.1922H24.9193V19.4816ZM26.3699 32.2115L33.9269 32.4153C33.9278 32.4153 33.9287 32.4154 33.9295 32.4154C37.2909 32.4802 40.0055 29.6971 40.0055 26.32C40.0055 22.9397 37.3565 20.2249 34.058 20.2249H26.3699V32.2115Z" fill="#7E7A74"/>
<path fill-rule="evenodd" clip-rule="evenodd" d="M22.1632 37.5441C22.1632 37.1336 22.4879 36.8008 22.8885 36.8008H33.1877C33.5883 36.8008 33.913 37.1336 33.913 37.5441C33.913 37.9546 33.5883 38.2874 33.1877 38.2874H22.8885C22.4879 38.2874 22.1632 37.9546 22.1632 37.5441Z" fill="#7E7A74"/>
<path fill-rule="evenodd" clip-rule="evenodd" d="M22.1632 19.4816C22.1632 19.0711 22.4879 18.7383 22.8885 18.7383H25.6446C26.0452 18.7383 26.3699 19.0711 26.3699 19.4816C26.3699 19.8921 26.0452 20.2249 25.6446 20.2249H22.8885C22.4879 20.2249 22.1632 19.8921 22.1632 19.4816Z" fill="#7E7A74"/>
<path fill-rule="evenodd" clip-rule="evenodd" d="M55.0527 20.9032C55.0877 20.4943 55.4396 20.1919 55.8387 20.2279C69.41 21.4506 80 33.067 80 47.2815C80 62.2609 68.1431 74.4123 53.5267 74.4123C43.6076 74.4123 34.9572 68.8315 30.4097 60.5038C30.2141 60.1455 30.3389 59.6926 30.6884 59.4921C31.038 59.2917 31.4799 59.4195 31.6755 59.7778C35.9766 67.6542 44.153 72.9257 53.5267 72.9257C67.3419 72.9257 78.5494 61.4399 78.5494 47.2815C78.5494 33.8449 68.541 22.8647 55.7116 21.7088C55.3126 21.6728 55.0176 21.3122 55.0527 20.9032Z" fill="#BC9E78"/>
<path fill-rule="evenodd" clip-rule="evenodd" d="M10.8198 52.1976C11.1348 52.4512 11.1895 52.9185 10.942 53.2413C8.64411 56.2385 7.25294 60.0179 7.25294 64.1547C7.25294 73.9236 14.9752 81.7711 24.515 81.7711C31.888 81.7711 38.1524 76.9958 40.5896 70.2878C40.7293 69.9031 41.1469 69.7073 41.5223 69.8506C41.8977 69.9938 42.0887 70.4218 41.949 70.8065C39.309 78.0727 32.5182 83.2578 24.515 83.2578C14.1817 83.2578 5.80235 74.7525 5.80235 64.1547C5.80235 59.6691 7.31236 55.5694 9.8014 52.3228C10.0489 52 10.5048 51.9439 10.8198 52.1976Z" fill="#7E7A74"/>
<path d="M33.4361 8.70374C33.9168 8.70374 34.3064 8.30439 34.3064 7.81177C34.3064 7.31915 33.9168 6.9198 33.4361 6.9198C32.9554 6.9198 32.5657 7.31915 32.5657 7.81177C32.5657 8.30439 32.9554 8.70374 33.4361 8.70374Z" fill="#BC9E78"/>
<path fill-rule="evenodd" clip-rule="evenodd" d="M29.0843 7.81169C16.6472 7.81169 6.60019 18.1082 6.60019 30.8543C6.60019 43.6004 16.6472 53.8969 29.0843 53.8969C41.52 53.8969 51.5685 43.5276 51.5685 30.8543C51.5685 24.8752 49.391 19.4778 45.738 15.3741C45.468 15.0708 45.4891 14.6007 45.785 14.324C46.0809 14.0473 46.5397 14.0689 46.8096 14.3722C50.6997 18.7422 53.019 24.4944 53.019 30.8543C53.019 44.3456 42.3241 55.3836 29.0843 55.3836C15.846 55.3836 5.1496 44.4214 5.1496 30.8543C5.1496 17.2872 15.846 6.32507 29.0843 6.32507C29.4849 6.32507 29.8096 6.65786 29.8096 7.06838C29.8096 7.4789 29.4849 7.81169 29.0843 7.81169Z" fill="#BC9E78"/>
<path fill-rule="evenodd" clip-rule="evenodd" d="M15.0922 55.3883C15.4101 55.6381 15.4703 56.1047 15.2265 56.4305C13.647 58.5419 12.6927 61.1356 12.6927 63.9316C12.6927 70.5826 17.9527 75.9733 24.4424 75.9733C24.843 75.9733 25.1677 76.3061 25.1677 76.7166C25.1677 77.1271 24.843 77.4599 24.4424 77.4599C17.1516 77.4599 11.2421 71.4036 11.2421 63.9316C11.2421 60.7812 12.3185 57.8744 14.0754 55.526C14.3191 55.2002 14.7743 55.1385 15.0922 55.3883Z" fill="#7E7A74"/>
<path fill-rule="evenodd" clip-rule="evenodd" d="M56.7346 26.6083C56.8197 26.2071 57.206 25.9526 57.5974 26.0398C62.7838 27.1953 67.2864 30.3509 70.2874 34.5797C70.523 34.9117 70.4514 35.3766 70.1274 35.6181C69.8034 35.8595 69.3498 35.7861 69.1142 35.4541C66.3128 31.5065 62.1119 28.567 57.2893 27.4925C56.8978 27.4053 56.6495 27.0094 56.7346 26.6083Z" fill="#7E7A74"/>
<path fill-rule="evenodd" clip-rule="evenodd" d="M73.6174 46.5382C74.018 46.5382 74.3427 46.871 74.3427 47.2815C74.3427 59.2877 64.8067 69.0605 53.0916 69.0605C45.8765 69.0605 39.4959 65.2865 35.6702 59.6745C35.4407 59.338 35.521 58.8746 35.8493 58.6395C36.1777 58.4044 36.6299 58.4866 36.8593 58.8231C40.4316 64.0634 46.3809 67.5739 53.0916 67.5739C64.0056 67.5739 72.8921 58.4666 72.8921 47.2815C72.8921 46.871 73.2168 46.5382 73.6174 46.5382Z" fill="#7E7A74"/>
<path d="M71.5866 39.0308C72.0673 39.0308 72.4569 38.6314 72.4569 38.1388C72.4569 37.6462 72.0673 37.2468 71.5866 37.2468C71.1059 37.2468 70.7162 37.6462 70.7162 38.1388C70.7162 38.6314 71.1059 39.0308 71.5866 39.0308Z" fill="#7E7A74"/>
<path fill-rule="evenodd" clip-rule="evenodd" d="M52.2937 57.4648C52.6943 57.4648 53.019 57.7976 53.019 58.2082V64.6006C53.019 65.0111 52.6943 65.3439 52.2937 65.3439C51.8932 65.3439 51.5685 65.0111 51.5685 64.6006V58.2082C51.5685 57.7976 51.8932 57.4648 52.2937 57.4648Z" fill="#7E7A74"/>
<path fill-rule="evenodd" clip-rule="evenodd" d="M57.6461 55.99C57.9603 55.7353 58.4164 55.7898 58.6649 56.1118L62.509 61.092C62.7575 61.4139 62.7043 61.8814 62.3901 62.1361C62.076 62.3908 61.6198 62.3362 61.3713 62.0143L57.5273 57.0341C57.2787 56.7121 57.332 56.2447 57.6461 55.99Z" fill="#7E7A74"/>
<path fill-rule="evenodd" clip-rule="evenodd" d="M61.4324 45.6463C61.4324 45.2357 61.7572 44.903 62.1577 44.903H68.3228C68.7233 44.903 69.048 45.2357 69.048 45.6463C69.048 46.0568 68.7233 46.3896 68.3228 46.3896H62.1577C61.7572 46.3896 61.4324 46.0568 61.4324 45.6463Z" fill="#7E7A74"/>
<path fill-rule="evenodd" clip-rule="evenodd" d="M65.9936 35.3032C66.2399 35.627 66.1834 36.0941 65.8674 36.3465L60.9354 40.286C60.6195 40.5384 60.1638 40.4805 59.9175 40.1567C59.6713 39.8329 59.7278 39.3658 60.0437 39.1135L64.9757 35.1739C65.2916 34.9216 65.7474 34.9795 65.9936 35.3032Z" fill="#7E7A74"/>
<path fill-rule="evenodd" clip-rule="evenodd" d="M29.0843 2.45989C13.8226 2.45989 1.45059 15.1392 1.45059 30.78C1.45059 46.4208 13.8226 59.1001 29.0843 59.1001C44.346 59.1001 56.718 46.4208 56.718 30.78C56.718 15.1392 44.346 2.45989 29.0843 2.45989ZM0 30.78C0 14.3182 13.0215 0.973267 29.0843 0.973267C45.1471 0.973267 58.1686 14.3182 58.1686 30.78C58.1686 47.2418 45.1471 60.5868 29.0843 60.5868C13.0215 60.5868 0 47.2418 0 30.78Z" fill="#7E7A74"/>
</svg>
