<svg width="80" height="81" viewBox="0 0 80 81" fill="none" xmlns="http://www.w3.org/2000/svg">
<g clip-path="url(#clip0_1677_16776)">
<path fill-rule="evenodd" clip-rule="evenodd" d="M55.941 62.4014C55.941 62.8002 55.6177 63.1234 55.219 63.1234L17.9627 63.1234C17.5639 63.1234 17.2407 62.8002 17.2407 62.4014L17.2407 59.4411C17.2407 59.0423 17.5639 58.7191 17.9627 58.7191L55.219 58.7191C55.6177 58.7191 55.941 59.0423 55.941 59.4411L55.941 62.4014ZM54.497 61.6794L54.497 60.1631L18.6847 60.1631L18.6847 61.6794L54.497 61.6794Z" fill="#7E7A74"/>
<path fill-rule="evenodd" clip-rule="evenodd" d="M55.9657 59.3841C55.9657 59.7828 55.6424 60.1061 55.2437 60.1061L37.1209 60.1061C36.7222 60.1061 36.3989 59.7828 36.3989 59.3841L36.3989 56.4238C36.3989 56.025 36.7222 55.7017 37.1209 55.7017L55.2437 55.7017C55.6424 55.7017 55.9657 56.025 55.9657 56.4238L55.9657 59.3841ZM54.5217 58.662L54.5217 57.1458L37.843 57.1458L37.843 58.662L54.5217 58.662Z" fill="#7E7A74"/>
<path fill-rule="evenodd" clip-rule="evenodd" d="M17.2841 43.9043C17.3936 43.5209 17.7933 43.2989 18.1767 43.4085L33.8445 47.885C36.1752 48.5509 37.8339 50.7108 37.8339 53.2002V62.3698C37.8339 62.7686 37.5107 63.0919 37.1119 63.0919C36.7131 63.0919 36.3899 62.7686 36.3899 62.3698V53.2002C36.3899 51.3574 35.1605 49.7628 33.4478 49.2735L17.78 44.7969C17.3966 44.6874 17.1745 44.2878 17.2841 43.9043Z" fill="#7E7A74"/>
<path fill-rule="evenodd" clip-rule="evenodd" d="M42.7717 46.2141C42.8817 45.8308 43.2816 45.6092 43.6648 45.7192L51.9673 48.1017C51.9674 48.1017 51.9672 48.1016 51.9673 48.1017C54.2978 48.7677 55.9567 50.9276 55.9567 53.4169V56.4494C55.9567 56.8481 55.6334 57.1714 55.2346 57.1714C54.8359 57.1714 54.5126 56.8481 54.5126 56.4494V53.4169C54.5126 51.5741 53.2832 49.9795 51.5706 49.4902L43.2665 47.1073C42.8832 46.9973 42.6617 46.5974 42.7717 46.2141Z" fill="#7E7A74"/>
<path fill-rule="evenodd" clip-rule="evenodd" d="M17.2563 42.9475C17.2563 39.8773 19.7456 37.3879 22.8159 37.3879H38.6282C41.6984 37.3879 44.1877 39.8773 44.1877 42.9475V56.4493C44.1877 56.8481 43.8645 57.1713 43.4657 57.1713C43.0669 57.1713 42.7437 56.8481 42.7437 56.4493V42.9475C42.7437 40.6748 40.9009 38.832 38.6282 38.832H22.8159C20.5432 38.832 18.7004 40.6748 18.7004 42.9475V59.4096C18.7004 59.8084 18.3771 60.1316 17.9783 60.1316C17.5796 60.1316 17.2563 59.8084 17.2563 59.4096V42.9475Z" fill="#7E7A74"/>
<path fill-rule="evenodd" clip-rule="evenodd" d="M55.9518 65.6577C55.9518 66.0565 55.6286 66.3798 55.2298 66.3798L52.9915 66.3798C52.5928 66.3798 52.2695 66.0565 52.2695 65.6577L52.2695 62.4086C52.2695 62.0099 52.5928 61.6866 52.9915 61.6866L55.2298 61.6866C55.6286 61.6866 55.9518 62.0099 55.9518 62.4086L55.9518 65.6577ZM54.5078 64.9357L54.5078 63.1307L53.7136 63.1307L53.7136 64.9357L54.5078 64.9357Z" fill="#7E7A74"/>
<path fill-rule="evenodd" clip-rule="evenodd" d="M40.0952 65.6577C40.0952 66.0565 39.7719 66.3798 39.3731 66.3798L37.1349 66.3798C36.7361 66.3798 36.4128 66.0565 36.4128 65.6577L36.4128 62.4086C36.4128 62.0099 36.7361 61.6866 37.1349 61.6866L39.3731 61.6866C39.7719 61.6866 40.0952 62.0099 40.0952 62.4086L40.0952 65.6577ZM38.6511 64.9357L38.6511 63.1307L37.8569 63.1307L37.8569 64.9357L38.6511 64.9357Z" fill="#7E7A74"/>
<path fill-rule="evenodd" clip-rule="evenodd" d="M20.9121 65.6577C20.9121 66.0565 20.5889 66.3798 20.1901 66.3798L17.9518 66.3798C17.5531 66.3798 17.2298 66.0565 17.2298 65.6577L17.2298 62.4086C17.2298 62.0099 17.5531 61.6866 17.9518 61.6866L20.1901 61.6866C20.5889 61.6866 20.9121 62.0099 20.9121 62.4086L20.9121 65.6577ZM19.4681 64.9357L19.4681 63.1307L18.6739 63.1307L18.6739 64.9357L19.4681 64.9357Z" fill="#7E7A74"/>
<path fill-rule="evenodd" clip-rule="evenodd" d="M40 11.8284C23.8645 11.8284 10.8303 24.8626 10.8303 40.9981C10.8303 44.5215 11.4645 47.9038 12.5919 51.0041C12.7282 51.3788 12.5349 51.7931 12.1601 51.9294C11.7853 52.0656 11.3711 51.8723 11.2348 51.4976C10.0517 48.2441 9.38628 44.695 9.38628 40.9981C9.38628 24.0651 23.0669 10.3844 40 10.3844C56.9342 10.3844 70.6137 24.1384 70.6137 40.9981C70.6137 45.5057 69.6529 49.7968 67.8758 53.6473C67.7087 54.0093 67.2797 54.1674 66.9176 54.0003C66.5556 53.8331 66.3975 53.4042 66.5646 53.0421C68.2532 49.3836 69.1697 45.2992 69.1697 40.9981C69.1697 24.9337 56.1344 11.8284 40 11.8284Z" fill="#BC9E78"/>
<path fill-rule="evenodd" clip-rule="evenodd" d="M34.8167 4.73602C32.5884 0.653618 26.3648 2.29699 26.4259 6.97973C26.507 11.6672 21.483 14.5383 17.4662 12.161L17.4582 12.1562L17.4582 12.1562C13.4836 9.73413 8.87688 14.2673 11.3045 18.3152C13.6889 22.2634 10.8115 27.3618 6.12452 27.2796L6.11793 27.2795L6.11793 27.2794C1.4857 27.1559 -0.2396 33.3541 3.88627 35.6725C8.0054 37.9019 7.98229 43.7411 3.89068 46.0324L3.88367 46.0363L3.88364 46.0363C-0.200437 48.264 1.44278 54.4889 6.12603 54.4278C10.8135 54.3467 13.6846 59.3707 11.3073 63.3875L11.3025 63.3955L11.3025 63.3955C8.88061 67.3698 13.4129 71.9761 17.4606 69.5498C21.4089 67.1643 26.5081 70.0418 26.4259 74.7292L26.4257 74.7358C26.3022 79.368 32.5004 81.0933 34.8188 76.9674C37.0482 72.8483 42.8874 72.8714 45.1787 76.963L45.1826 76.97L45.1826 76.97C47.4103 81.0541 53.6352 79.4109 53.5741 74.7277C53.4929 70.0402 58.517 67.1691 62.5338 69.5464L62.5418 69.5512L62.5418 69.5512C66.5162 71.9731 71.1227 67.4405 68.6959 63.3928C66.3108 59.4445 69.1883 54.3456 73.8755 54.4278L73.8821 54.428C78.5143 54.5515 80.2396 48.3533 76.1137 46.0349C71.9946 43.8055 72.0177 37.9663 76.1093 35.675L76.1163 35.6711L76.1163 35.6711C80.2004 33.4434 78.5572 27.2185 73.874 27.2796C69.1865 27.3607 66.3154 22.3367 68.6927 18.3199L68.6975 18.3119L68.6975 18.3119C71.1196 14.3371 66.5861 9.73028 62.5381 12.1584C58.59 14.5424 53.4919 11.665 53.5741 6.97821L53.5743 6.97163C53.6978 2.33939 47.4996 0.614099 45.1812 4.73997C42.9569 8.8496 37.0386 8.84828 34.8167 4.73602ZM24.982 7.00051C24.9001 0.854596 33.1145 -1.4003 36.0851 4.04586L36.0866 4.04853C37.7632 7.15337 42.2368 7.15337 43.9134 4.04853L43.9189 4.03853C46.9449 -1.35915 55.1796 0.8129 55.0179 7.00628C54.9577 10.5484 58.8104 12.7234 61.7927 10.9216L61.7946 10.9205C67.1312 7.71849 73.1369 13.7931 69.9332 19.0591C68.127 22.117 70.3089 25.8979 73.8501 25.8358L73.8532 25.8357C79.9977 25.7538 82.253 33.9645 76.8115 36.9368C73.688 38.6891 73.7105 43.096 76.8052 44.7671L76.8152 44.7726C82.2128 47.7986 80.0408 56.0333 73.8474 55.8716C70.3053 55.8114 68.1302 59.6641 69.9321 62.6464L69.9332 62.6483C73.1352 67.9849 67.0606 73.9906 61.7947 70.787C58.7367 68.9807 54.9558 71.1625 55.0179 74.7038L55.018 74.7069C55.0999 80.8514 46.8892 83.1067 43.9169 77.6652C42.1646 74.5417 37.7577 74.5642 36.0866 77.6589L36.0811 77.6689C33.055 83.0666 24.8201 80.8944 24.9821 74.7008C25.042 71.1589 21.1895 68.984 18.2073 70.7858L18.2054 70.7869C12.8687 73.9889 6.86306 67.9142 10.0668 62.6483C11.873 59.5904 9.69112 55.8095 6.14985 55.8716L6.14681 55.8717C0.00229532 55.9536 -2.25297 47.7429 3.18844 44.7706C6.31196 43.0183 6.28951 38.6114 3.19483 36.9403L3.18483 36.9348C-2.21294 33.9087 -0.0407281 25.6738 6.15288 25.8358C9.69478 25.8957 11.8697 22.0432 10.0679 19.061L10.0668 19.0591C6.86477 13.7224 12.9395 7.71673 18.2054 10.9205C21.2634 12.7267 25.0442 10.5448 24.9821 7.00354L24.982 7.00051Z" fill="#7E7A74"/>
<path fill-rule="evenodd" clip-rule="evenodd" d="M47.9444 15.9779C48.2073 16.0615 48.3997 16.2877 48.4399 16.5606L49.0329 20.5795L52.7228 22.2927C52.9734 22.4091 53.1357 22.6583 53.1407 22.9345C53.1457 23.2108 52.9926 23.4657 52.7463 23.591L49.1132 25.4406L48.5857 29.3968C48.5494 29.6691 48.3618 29.8972 48.1016 29.9853C47.8414 30.0734 47.5537 30.0062 47.3595 29.8119L44.5218 26.9743L40.4891 27.7015C40.2183 27.7503 39.9433 27.6409 39.7799 27.4195C39.6166 27.198 39.5934 26.9029 39.72 26.6586L41.5663 23.0979L39.6527 19.5347C39.5236 19.2942 39.5411 19.0015 39.6979 18.7782C39.8548 18.5548 40.1242 18.439 40.3942 18.4788L44.4289 19.0741L47.2034 16.1675C47.3939 15.9679 47.6815 15.8943 47.9444 15.9779ZM47.2271 18.2339L45.2154 20.3414C45.0536 20.511 44.8196 20.5914 44.5878 20.5572L41.6046 20.1171L43.0188 22.7504C43.1316 22.9605 43.1334 23.2127 43.0237 23.4244L41.6779 26.0198L44.6372 25.4861C44.87 25.4442 45.1086 25.5189 45.2759 25.6862L47.3475 27.7577L47.732 24.8738C47.7634 24.6385 47.9085 24.4336 48.1201 24.3258L50.7686 22.9775L48.0714 21.7252C47.8509 21.6228 47.6967 21.4163 47.6612 21.1757L47.2271 18.2339Z" fill="#BC9E78"/>
<path fill-rule="evenodd" clip-rule="evenodd" d="M60.9369 27.8179C61.2017 27.9005 61.3958 28.1274 61.4363 28.4018L62.0297 32.4239L65.6515 34.136C65.8996 34.2533 66.0598 34.5011 66.0649 34.7755C66.0699 35.0499 65.9189 35.3034 65.6753 35.4298L62.1109 37.278L61.5823 41.3087C61.5466 41.5813 61.359 41.81 61.0987 41.8984C60.8383 41.9869 60.5503 41.9198 60.3559 41.7253L57.447 38.8164L53.4876 39.5423C53.2165 39.592 52.9408 39.4831 52.7769 39.2615C52.613 39.0399 52.5896 38.7444 52.7164 38.4998L54.5627 34.9391L52.6491 31.3759C52.519 31.1336 52.5378 30.8384 52.6977 30.6146C52.8575 30.3908 53.1306 30.2773 53.402 30.3218L57.4252 30.9813L60.1942 28.0146C60.3834 27.8118 60.6721 27.7353 60.9369 27.8179ZM60.2266 30.0962L58.2174 32.2489C58.0527 32.4253 57.8108 32.5078 57.5727 32.4688L54.6147 31.9839L56.0152 34.5916C56.128 34.8017 56.1298 35.0539 56.02 35.2656L54.6767 37.8562L57.5593 37.3277C57.7927 37.2849 58.0323 37.3595 58.2001 37.5273L60.341 39.6683L60.7281 36.7166C60.7588 36.4825 60.9021 36.2782 61.1117 36.1695L63.7168 34.8187L61.0633 33.5643C60.845 33.4611 60.6928 33.2557 60.6575 33.0169L60.2266 30.0962Z" fill="#BC9E78"/>
<path fill-rule="evenodd" clip-rule="evenodd" d="M30.5469 18.2894C30.8077 18.3736 30.9983 18.5983 31.0389 18.8693L31.6326 22.8272L35.264 24.6099C35.5104 24.7308 35.6669 24.981 35.6679 25.2554C35.6689 25.5298 35.5142 25.7811 35.2687 25.9038L31.7063 27.685L31.1114 31.7172C31.0713 31.9886 30.8809 32.2139 30.6199 32.2986C30.3589 32.3833 30.0725 32.3127 29.8807 32.1165L27.0446 29.2144L23.0905 29.9393C22.8194 29.989 22.5437 29.8801 22.3798 29.6585C22.2159 29.437 22.1925 29.1414 22.3193 28.8968L24.1656 25.3361L22.252 21.7729C22.1217 21.5303 22.1408 21.2347 22.3011 21.0109C22.4614 20.787 22.7352 20.6738 23.0068 20.7191L26.9672 21.3792L29.8085 18.4718C30.0001 18.2758 30.2861 18.2051 30.5469 18.2894ZM29.8263 20.5197L27.7366 22.658C27.5716 22.8268 27.3344 22.9043 27.1015 22.8655L24.2199 22.3853L25.618 24.9886C25.7309 25.1987 25.7327 25.4509 25.6229 25.6626L24.2796 28.2532L27.1622 27.7247C27.3985 27.6814 27.6409 27.7585 27.8088 27.9303L29.8954 30.0654L30.3326 27.1021C30.3671 26.8689 30.5132 26.6671 30.724 26.5617L33.3195 25.264L30.6566 23.9567C30.4438 23.8523 30.2959 23.6501 30.2607 23.4157L29.8263 20.5197Z" fill="#BC9E78"/>
</g>
<defs>
<clipPath id="clip0_1677_16776">
<rect width="80" height="80" fill="white" transform="translate(0 0.998047)"/>
</clipPath>
</defs>
</svg>
