<svg width="80" height="81" viewBox="0 0 80 81" fill="none" xmlns="http://www.w3.org/2000/svg">
<path fill-rule="evenodd" clip-rule="evenodd" d="M59.2058 71.7366C59.2388 71.3044 59.585 70.9833 59.9791 71.0195C64.5292 71.4369 68.3263 71.9962 70.9987 72.6556C72.329 72.9839 73.4187 73.346 74.1911 73.7472C74.5753 73.9468 74.9205 74.176 75.1797 74.4482C75.4389 74.7206 75.6745 75.1053 75.6745 75.5951C75.6745 76.3744 75.0991 76.8883 74.6127 77.2028C74.0698 77.5538 73.3156 77.8656 72.4106 78.1486C70.5896 78.718 67.989 79.2213 64.8158 79.6407C58.4595 80.4809 49.6979 80.9981 40.0322 80.9981C30.3665 80.9981 21.5961 80.4809 15.231 79.6418C12.0533 79.2228 9.44841 78.7203 7.62435 78.1521C6.71781 77.8698 5.96243 77.5588 5.41876 77.2089C4.93269 76.8961 4.35413 76.3832 4.35413 75.603C4.35413 75.1375 4.56688 74.7655 4.80986 74.4965C5.05091 74.2297 5.37118 74.0061 5.72469 73.8126C6.43466 73.4239 7.43326 73.0744 8.64889 72.757C11.0918 72.1191 14.5697 71.5711 18.7613 71.1458C19.1552 71.1058 19.504 71.4235 19.5404 71.8554C19.5769 72.2872 19.2871 72.6697 18.8933 72.7097C14.7276 73.1325 11.327 73.6722 8.98068 74.2849C7.80171 74.5928 6.92806 74.9093 6.36441 75.2178C6.08112 75.3729 5.91425 75.5057 5.82735 75.6019C5.82723 75.6021 5.82711 75.6022 5.82699 75.6023C5.87473 75.6554 5.96748 75.7409 6.1437 75.8543C6.5323 76.1044 7.1518 76.3722 8.01569 76.6413C9.73249 77.176 12.2507 77.6669 15.4019 78.0824C21.6946 78.912 30.4052 79.4275 40.0322 79.4275C49.6593 79.4275 58.3609 78.912 64.6444 78.0814C67.7911 77.6655 70.3046 77.1739 72.0178 76.6382C72.8799 76.3686 73.4978 76.1003 73.8852 75.8499C74.0618 75.7357 74.1544 75.6497 74.2019 75.5964C74.1979 75.592 74.1936 75.5873 74.1889 75.5825C74.0864 75.4748 73.8948 75.3312 73.5779 75.1666C72.9482 74.8395 71.9794 74.5076 70.6842 74.1879C68.1055 73.5516 64.3832 72.9997 59.8597 72.5847C59.4656 72.5485 59.1728 72.1688 59.2058 71.7366ZM74.254 75.6657C74.2539 75.6657 74.2533 75.6645 74.2524 75.6622C74.2536 75.6646 74.2541 75.6657 74.254 75.6657ZM5.77502 75.6717C5.77495 75.6717 5.77535 75.6707 5.77641 75.6687C5.77561 75.6707 5.77508 75.6717 5.77502 75.6717Z" fill="#BC9E78"/>
<path fill-rule="evenodd" clip-rule="evenodd" d="M31.9002 16.392C34.9064 12.7922 37.419 8.73198 39.359 4.33887L40.0036 4.68115L40.6487 4.34017C42.5824 8.73965 45.0927 12.8052 48.0998 16.4077C51.0015 19.8382 52.8296 25.0466 52.8296 30.84C52.8296 35.9034 51.4428 40.5262 49.1599 43.9013C46.8769 47.2767 43.6627 49.4441 40.0394 49.4441C36.4171 49.4441 33.1942 47.2818 30.9019 43.9086C28.6096 40.5355 27.2133 35.9123 27.2133 30.84C27.2133 25.0365 28.9954 19.826 31.9002 16.392ZM40.0022 6.43123C38.1005 10.4237 35.7319 14.1296 32.9549 17.4546L32.9518 17.4584L32.9518 17.4584C30.3289 20.5581 28.6456 25.3674 28.6456 30.84C28.6456 35.6077 29.9599 39.8939 32.0504 42.9701C34.1408 46.0463 36.9729 47.8734 40.0394 47.8734C43.1048 47.8734 45.9277 46.0435 48.0095 42.9656C50.0915 39.8875 51.3974 35.6008 51.3974 30.84C51.3974 25.3887 49.6741 20.5774 47.0482 17.4741L47.0449 17.4702L47.045 17.4702C44.2665 14.1419 41.8992 10.4303 40.0022 6.43123Z" fill="#7E7A74"/>
<path fill-rule="evenodd" clip-rule="evenodd" d="M37.7071 22.4559C38.3726 21.6606 38.9292 20.7636 39.3595 19.7928L40.0036 20.1362L40.6483 19.7943C41.0762 20.7646 41.6305 21.6615 42.2938 22.4569C42.2985 22.4625 42.3031 22.4682 42.3076 22.4739C43.1218 23.5092 43.5608 24.8364 43.5412 26.2033C43.535 26.637 43.2094 26.983 42.8139 26.9762C42.4184 26.9693 42.1029 26.6122 42.1091 26.1786C42.1232 25.2003 41.8101 24.2503 41.2293 23.5078C40.7737 22.9603 40.3632 22.3708 40.0022 21.7462C39.6398 22.3709 39.2279 22.9604 38.7708 23.5077C38.1858 24.2594 37.8748 25.2219 37.8979 26.2101C37.908 26.6437 37.5957 27.0042 37.2003 27.0153C36.8049 27.0264 36.4762 26.6839 36.4661 26.2503C36.4338 24.8689 36.8705 23.5236 37.6914 22.4753C37.6965 22.4687 37.7018 22.4622 37.7071 22.4559Z" fill="#7E7A74"/>
<path fill-rule="evenodd" clip-rule="evenodd" d="M23.9752 18.2991C28.2478 18.4413 32.8313 20.6471 36.6285 24.8111C40.4282 28.9779 42.5051 34.174 42.603 38.9189C42.6119 39.3525 42.2986 39.7119 41.9032 39.7217C41.5078 39.7316 41.18 39.388 41.1711 38.9544C41.0827 34.6681 39.1922 29.8436 35.6157 25.9217C32.0385 21.9989 27.7874 19.9956 23.9263 19.8688L23.9142 19.8683C19.8197 19.6582 15.7695 18.8651 11.8653 17.5105C13.0874 21.8221 13.7911 26.2925 13.957 30.8084L13.9571 30.811C14.0998 35.0381 16.0051 39.7739 19.479 43.6374C20.3732 44.6193 21.3462 45.5109 22.3863 46.3014C22.7113 46.5484 22.7922 47.0377 22.5669 47.3942C22.3416 47.7506 21.8955 47.8393 21.5704 47.5923C20.4589 46.7476 19.4192 45.7947 18.4637 44.7452L18.4606 44.7418C14.7743 40.6429 12.6841 35.5478 12.5258 30.8704C12.3462 25.9838 11.5172 21.1522 10.065 16.5282L10.7421 16.2725L10.9787 15.5312C15.1659 17.1388 19.5437 18.0711 23.9752 18.2991Z" fill="#7E7A74"/>
<path fill-rule="evenodd" clip-rule="evenodd" d="M68.1599 17.5389C64.2409 18.8865 60.1767 19.6702 56.0694 19.8685L56.0594 19.8689L56.0594 19.8689C52.2078 19.9955 47.785 22.1539 44.3715 25.92C40.9544 29.69 39.0672 34.2978 38.8494 38.4478C38.8267 38.8808 38.4881 39.2116 38.0933 39.1867C37.6984 39.1617 37.3968 38.7905 37.4195 38.3575C37.66 33.7748 39.7259 28.8175 43.3556 24.8128C46.9874 20.8059 51.7433 18.4412 56.0114 18.2991C60.4561 18.084 64.8487 17.162 69.0517 15.562L69.2865 16.3039L69.9629 16.5618C68.5009 21.173 67.6624 25.994 67.4741 30.8716C67.3155 35.5487 65.2253 40.6432 61.5393 44.7418C60.6286 45.7557 59.6378 46.6791 58.5787 47.5014C58.2559 47.752 57.8089 47.6682 57.5804 47.3143C57.3518 46.9603 57.4283 46.4702 57.7511 46.2195C58.7414 45.4507 59.6677 44.5872 60.5192 43.6393L60.5195 43.639C63.9943 39.7752 65.9001 35.0387 66.0429 30.811L66.0431 30.8069C66.2169 26.2995 66.9292 21.8389 68.1599 17.5389Z" fill="#7E7A74"/>
<path fill-rule="evenodd" clip-rule="evenodd" d="M5.57874 48.0531C5.57922 36.9789 13.391 27.9187 23.2817 27.9187C33.174 27.9187 41.1258 37.1325 40.9846 48.3477C40.9792 48.7814 40.6541 49.1281 40.2587 49.1221C39.8632 49.1161 39.547 48.7597 39.5525 48.326C39.6834 37.9294 32.3241 29.4893 23.2817 29.4893C14.2379 29.4893 7.01102 37.784 7.01102 48.0542L7.01101 48.0562C7.00247 51.6468 7.92704 55.1656 9.6764 58.2007C9.89635 58.5711 10.2069 58.8662 10.5726 59.0522C10.9394 59.2389 11.3469 59.3082 11.748 59.2522C12.1492 59.1962 12.5278 59.0172 12.8403 58.7357C13.1506 58.4563 13.3832 58.0871 13.5119 57.6702C14.6137 53.7162 16.8336 50.2488 19.8507 47.7692C22.8706 45.2874 26.5324 43.924 30.306 43.8763L30.3123 43.8763C30.9114 43.8745 31.51 43.9102 32.1054 43.9832C32.4984 44.0315 32.7814 44.4199 32.7375 44.851C32.6935 45.282 32.3393 45.5924 31.9462 45.5442C31.406 45.4779 30.8628 45.4454 30.3193 45.4469C26.8509 45.4914 23.4854 46.7449 20.7097 49.026C17.9332 51.3079 15.891 54.4996 14.8789 58.139C14.8771 58.1455 14.8752 58.1521 14.8732 58.1586C14.6597 58.8596 14.2702 59.4804 13.7493 59.9495C13.2285 60.4186 12.5975 60.7169 11.9289 60.8102C11.2602 60.9036 10.5812 60.788 9.96979 60.477C9.35839 60.1659 8.83946 59.6719 8.47268 59.0519L8.4682 59.0443L8.46824 59.0443C6.57197 55.7562 5.56965 51.9435 5.57874 48.0531Z" fill="#7E7A74"/>
<path fill-rule="evenodd" clip-rule="evenodd" d="M56.9904 29.4893C47.948 29.4893 40.5887 37.9294 40.7196 48.326C40.7251 48.7597 40.4089 49.1161 40.0135 49.1221C39.618 49.1281 39.293 48.7814 39.2875 48.3477C39.1463 37.1325 47.0981 27.9187 56.9904 27.9187C66.8796 27.9187 74.693 36.938 74.6934 48.0297C74.6934 48.03 74.6934 48.0303 74.6934 48.0306H73.9773L74.6934 48.0286C74.6934 48.0289 74.6934 48.0293 74.6934 48.0297C74.7025 51.9201 73.7001 55.7327 71.8039 59.0207L71.7995 59.0283L71.7994 59.0283C71.4327 59.6484 70.9137 60.1424 70.3023 60.4534C69.6909 60.7645 69.0119 60.88 68.3433 60.7867C67.6747 60.6934 67.0437 60.395 66.5228 59.9259C66.0019 59.4568 65.6124 58.8361 65.3989 58.135C65.3971 58.1288 65.3952 58.1226 65.3935 58.1164C64.3778 54.4812 62.334 51.2945 59.5578 49.017C56.7827 46.7403 53.4195 45.4901 49.9541 45.4469C49.9555 45.4469 49.9569 45.4469 49.9583 45.4469L49.9579 44.6616L49.95 45.4469C49.9513 45.4469 49.9527 45.4469 49.9541 45.4469C49.2177 45.4475 48.4823 45.5052 47.7534 45.6196C47.3619 45.6811 46.9991 45.3828 46.943 44.9535C46.887 44.5241 47.159 44.1263 47.5505 44.0648C48.3478 43.9397 49.1522 43.8767 49.9576 43.8763L49.9659 43.8763V43.8763C53.7366 43.9223 57.3963 45.2822 60.4158 47.7593C63.4328 50.2343 65.6544 53.6966 66.7601 57.6462C66.7592 57.6433 66.7584 57.6405 66.7575 57.6376L66.0782 57.8863L66.7629 57.6562C66.762 57.6529 66.7611 57.6495 66.7601 57.6462C66.8887 58.0633 67.1214 58.4326 67.4318 58.7122C67.7443 58.9936 68.1229 59.1726 68.5241 59.2286C68.9253 59.2846 69.3327 59.2153 69.6995 59.0287C70.0652 58.8426 70.3757 58.5476 70.5957 58.1772C70.5949 58.1785 70.5941 58.1799 70.5934 58.1812L71.1986 58.6009L70.5978 58.1736C70.5971 58.1748 70.5964 58.176 70.5957 58.1772C72.3451 55.1421 73.2697 51.6232 73.2611 48.0327L73.2611 48.0306C73.2611 37.7464 66.0357 29.4893 56.9904 29.4893Z" fill="#7E7A74"/>
<path fill-rule="evenodd" clip-rule="evenodd" d="M20.5688 1.09521C21.7322 1.79663 22.9866 2.29868 24.2886 2.58391L24.2973 2.58584L24.2973 2.5859C25.0704 2.76633 25.801 3.12021 26.4433 3.62529C27.0843 4.12937 27.6235 4.77317 28.0271 5.51635C29.5511 8.25114 29.0842 11.8222 26.714 13.4159C24.3418 15.0108 21.2284 13.8337 19.7015 11.1034C19.2811 10.3712 19.0031 9.55166 18.885 8.69614C18.7667 7.83888 18.8115 6.96405 19.0165 6.12669L19.0191 6.1162L19.0192 6.11622C19.3813 4.71513 19.5461 3.26161 19.508 1.80594L20.2238 1.78338L20.5688 1.09521ZM20.926 3.04361C20.8698 4.22533 20.6931 5.39781 20.3986 6.53899C20.2459 7.16549 20.2127 7.81985 20.3012 8.4611C20.3899 9.10404 20.5991 9.71988 20.9154 10.2699L20.9206 10.2788L20.9205 10.2788C22.1301 12.4456 24.4144 13.1197 25.9653 12.0769C27.5183 11.0327 28.0117 8.49701 26.8031 6.33201L26.7982 6.32327L26.7982 6.32324C26.4954 5.76447 26.0903 5.28046 25.6086 4.90166C25.1281 4.52375 24.5816 4.25871 24.0033 4.12309C22.9427 3.89033 21.9106 3.52796 20.926 3.04361Z" fill="#BC9E78"/>
<path fill-rule="evenodd" clip-rule="evenodd" d="M22.1352 7.41099C22.2119 6.98551 22.5886 6.70878 22.9766 6.79289C24.0935 7.03502 25.1517 7.53085 26.0833 8.24847C27.0149 8.9661 27.7992 9.88962 28.3857 10.9596C28.3899 10.9673 28.394 10.975 28.3979 10.9828C29.1977 12.5613 29.5232 14.3761 29.328 16.1692C29.2812 16.5998 28.9248 16.9073 28.5321 16.8559C28.1394 16.8045 27.859 16.4137 27.9059 15.983C28.0648 14.5225 27.801 13.0442 27.1518 11.7573C26.669 10.8801 26.0247 10.1227 25.26 9.53369C24.492 8.94207 23.6196 8.53331 22.6988 8.3337C22.3108 8.24958 22.0585 7.83647 22.1352 7.41099Z" fill="#BC9E78"/>
<path fill-rule="evenodd" clip-rule="evenodd" d="M56.5369 4.12241C55.9652 4.26244 55.4256 4.52918 54.9514 4.90628C54.4752 5.2849 54.0749 5.7667 53.7754 6.32184L53.7699 6.33201C52.5612 8.49701 53.0546 11.0327 54.6076 12.0769C56.1586 13.1197 58.4428 12.4456 59.6524 10.2788L59.6582 10.2686C59.9756 9.71913 60.1858 9.10353 60.2756 8.46057C60.3649 7.82109 60.3332 7.16833 60.1824 6.54295C59.8736 5.40101 59.6852 4.22545 59.62 3.03925C58.6337 3.52531 57.5996 3.88893 56.5369 4.12241ZM60.3133 1.78338L59.9683 1.09521C58.8049 1.79663 57.5505 2.29868 56.2486 2.58391L56.2339 2.5873C55.4682 2.77339 54.7455 3.12989 54.1106 3.63472C53.4771 4.13838 52.9445 4.77898 52.5455 5.51701C51.0218 8.25172 51.489 11.8224 53.859 13.4159C56.231 15.0107 59.344 13.8339 60.8711 11.104C61.2927 10.3727 61.5719 9.55365 61.6914 8.69835C61.8111 7.84107 61.7677 6.9659 61.5638 6.12794C61.5621 6.12077 61.5603 6.11364 61.5583 6.10654C61.1796 4.70975 61.0011 3.25691 61.0293 1.80002L60.3133 1.78338Z" fill="#BC9E78"/>
<path fill-rule="evenodd" clip-rule="evenodd" d="M58.4092 7.41152C58.4856 7.83706 58.233 8.24998 57.845 8.3338C56.9231 8.53294 56.0495 8.94148 55.2803 9.53316C54.5145 10.1222 53.8692 10.8797 53.3853 11.7573C52.7375 13.044 52.476 14.5219 52.6382 15.9811C52.686 16.4116 52.4066 16.8032 52.014 16.8557C51.6214 16.9081 51.2643 16.6017 51.2164 16.1711C51.0172 14.3784 51.3401 12.5625 52.139 10.9833C52.1431 10.9752 52.1473 10.9671 52.1517 10.9592C52.7394 9.88866 53.5249 8.96489 54.4578 8.24733C55.3906 7.52976 56.4502 7.03429 57.5682 6.79279C57.9562 6.70896 58.3328 6.98598 58.4092 7.41152Z" fill="#BC9E78"/>
<path fill-rule="evenodd" clip-rule="evenodd" d="M60.5707 55.0372C59.0437 52.3069 55.9304 51.1298 53.5582 52.7247C51.1882 54.3182 50.7211 57.8889 52.2447 60.6236C52.6474 61.3682 53.1861 62.0135 53.827 62.519C54.4693 63.0257 55.2004 63.3809 55.9741 63.5624L55.9847 63.5648C57.2862 63.8477 58.5406 64.3472 59.7044 65.046L60.0483 64.3572L60.7642 64.3347C60.726 62.879 60.8909 61.4255 61.253 60.0244L61.253 60.0244L61.2556 60.0139C61.4606 59.1766 61.5054 58.3017 61.3871 57.4445C61.269 56.5889 60.9911 55.7694 60.5707 55.0372ZM59.3461 63.0992C59.4022 61.9167 59.5788 60.7435 59.8735 59.6016C60.0263 58.9751 60.0594 58.3207 59.9709 57.6795C59.8822 57.0366 59.6731 56.4207 59.3567 55.8707L59.3516 55.8618L59.3516 55.8618C58.142 53.695 55.8578 53.0209 54.3068 54.0637C52.7538 55.1079 52.2604 57.6436 53.4691 59.8086L53.4746 59.8186C53.7768 60.3787 54.1816 60.864 54.6633 61.244C55.1437 61.6229 55.6902 61.8889 56.2687 62.0253C57.329 62.2563 58.3612 62.6168 59.3461 63.0992Z" fill="#BC9E78"/>
<path fill-rule="evenodd" clip-rule="evenodd" d="M51.7401 49.2848C52.1328 49.3362 52.4132 49.727 52.3663 50.1576C52.2073 51.6183 52.4712 53.0967 53.1205 54.3836C53.6026 55.2614 54.2466 56.0191 55.0114 56.6082C55.7793 57.1998 56.6519 57.6081 57.5727 57.8068C57.9608 57.8906 58.2135 58.3035 58.1371 58.729C58.0607 59.1546 57.6842 59.4317 57.2961 59.3479C56.1788 59.1068 55.1199 58.6113 54.1881 57.8934C53.2562 57.1756 52.472 56.2514 51.8861 55.1805C51.8821 55.173 51.8781 55.1655 51.8742 55.1579C51.0744 53.5794 50.7489 51.7645 50.9441 49.9715C50.991 49.5408 51.3473 49.2334 51.7401 49.2848Z" fill="#BC9E78"/>
<path fill-rule="evenodd" clip-rule="evenodd" d="M25.7075 54.0637C24.1566 53.0209 21.8723 53.695 20.6627 55.8618L20.6562 55.8732C20.3378 56.4222 20.1265 57.0376 20.0356 57.6806C19.9451 58.3212 19.9761 58.9755 20.1267 59.6023C20.423 60.744 20.6014 61.9171 20.6592 63.0997C21.6467 62.6157 22.682 62.255 23.7456 62.0253C24.3225 61.8879 24.8675 61.6216 25.3464 61.243C25.8271 60.8631 26.2309 60.3782 26.5324 59.8189L26.539 59.807C27.7536 57.6427 27.2603 55.1077 25.7075 54.0637ZM19.9588 64.3572L19.243 64.336C19.2788 62.8799 19.1117 61.4264 18.7474 60.0256L18.7438 60.0114C18.5412 59.1728 18.4991 58.2973 18.6202 57.44C18.741 56.585 19.0216 55.7665 19.4444 55.036C20.9715 52.3065 24.0843 51.13 26.4562 52.7247C28.8261 54.3182 29.2935 57.8891 27.7621 60.6243C27.3604 61.3675 26.8231 62.0119 26.184 62.5171C25.5431 63.0237 24.8137 63.3795 24.0414 63.5621L24.0285 63.565C22.7247 63.8459 21.4682 64.3453 20.3031 65.0458L19.9588 64.3572Z" fill="#BC9E78"/>
<path fill-rule="evenodd" clip-rule="evenodd" d="M28.2605 49.2847C28.6533 49.2336 29.0094 49.5414 29.056 49.9721C29.2497 51.7629 28.9274 53.5753 28.1343 55.1552C28.1299 55.164 28.1253 55.1728 28.1205 55.1815C27.5328 56.252 26.7472 57.1758 25.8144 57.8933C24.8815 58.6109 23.822 59.1064 22.704 59.3479C22.3159 59.4317 21.9394 59.1547 21.8629 58.7292C21.7865 58.3036 22.0391 57.8907 22.4272 57.8069C23.349 57.6077 24.2227 57.1992 24.9919 56.6075C25.7573 56.0187 26.4024 55.2616 26.8862 54.3844C27.5302 53.095 27.7916 51.6172 27.6337 50.157C27.5871 49.7263 27.8677 49.3358 28.2605 49.2847Z" fill="#BC9E78"/>
<path fill-rule="evenodd" clip-rule="evenodd" d="M4.3982 28.2433C5.32486 27.9392 6.32368 28.0448 7.1807 28.5382C8.04547 29.036 8.69581 29.8884 8.99008 30.9097C9.00026 30.945 9.00815 30.9811 9.01368 31.0176C9.17363 32.0737 8.9475 33.1564 8.38431 34.0309C7.82603 34.8977 6.98116 35.4907 6.03027 35.6839C5.49546 35.8281 4.93942 35.8517 4.39589 35.7531C3.84406 35.6531 3.31697 35.4294 2.84755 35.0958L2.84092 35.0911L2.84094 35.0911C2.12396 34.5693 1.33958 34.1685 0.51404 33.9022L0.716135 33.1489L0.222961 32.5794C0.849037 31.9274 1.38474 31.1784 1.81305 30.3562L1.81401 30.3544L1.81401 30.3544C2.09242 29.8233 2.46793 29.3611 2.91698 28.9967C3.35908 28.6379 3.86306 28.3816 4.3982 28.2433ZM1.98712 32.8137C2.55996 33.0788 3.10984 33.4021 3.6294 33.7799C3.93276 33.9947 4.27316 34.139 4.62949 34.2035C4.98702 34.2684 5.35289 34.2516 5.70425 34.1544C5.72065 34.1498 5.73719 34.1459 5.75383 34.1427C6.34386 34.0273 6.86864 33.6616 7.21439 33.1248C7.55035 32.6031 7.69093 31.9608 7.60852 31.33C7.42126 30.7273 7.03016 30.2254 6.51493 29.9288C5.9847 29.6235 5.36595 29.5604 4.79346 29.7531C4.77685 29.7587 4.76006 29.7636 4.74312 29.7679C4.391 29.8563 4.05934 30.0236 3.76897 30.2592C3.47885 30.4946 3.2362 30.7932 3.05621 31.1363C2.74656 31.7305 2.38861 32.2919 1.98712 32.8137Z" fill="#BC9E78"/>
<path fill-rule="evenodd" clip-rule="evenodd" d="M7.94943 30.6342C8.78013 30.4626 9.63907 30.578 10.4076 30.9648C10.7671 31.1457 11.1922 30.9728 11.3572 30.5786C11.5221 30.1844 11.3644 29.7182 11.005 29.5373C9.96039 29.0116 8.79213 28.857 7.66349 29.0951C7.6532 29.0972 7.64296 29.0996 7.63277 29.1023C6.86382 29.3032 6.14111 29.6764 5.51009 30.1985C4.87907 30.7206 4.35339 31.3802 3.96613 32.1359C3.77237 32.514 3.8948 32.9927 4.2396 33.2052C4.58439 33.4177 5.02099 33.2834 5.21475 32.9053C5.5052 32.3386 5.89946 31.8439 6.37272 31.4523C6.8418 31.0642 7.37843 30.7858 7.94943 30.6342Z" fill="#BC9E78"/>
<path fill-rule="evenodd" clip-rule="evenodd" d="M75.2137 29.7531C74.6412 29.5604 74.0225 29.6235 73.4922 29.9288C72.9767 30.2256 72.5855 30.7278 72.3984 31.3309C72.3144 31.9617 72.4543 32.6047 72.7904 33.1266C73.1361 33.6634 73.6614 34.0286 74.2516 34.1424C74.2684 34.1456 74.2851 34.1495 74.3016 34.154C74.6534 34.2506 75.0196 34.267 75.3775 34.2021C75.7339 34.1375 76.0745 33.9937 76.3784 33.7794C76.8961 33.4031 77.4439 33.0805 78.0143 32.8154C77.6136 32.2935 77.2574 31.7313 76.9506 31.1357C76.7697 30.7938 76.5268 30.4961 76.237 30.2609C75.9463 30.025 75.6144 29.857 75.2621 29.7674C75.2458 29.7633 75.2297 29.7585 75.2137 29.7531ZM79.2839 33.1489L79.4875 33.9017C78.6641 34.1695 77.8818 34.5704 77.1662 35.0911L77.1585 35.0967L77.1585 35.0966C76.689 35.4288 76.1623 35.6518 75.6111 35.7517C75.0682 35.8502 74.5128 35.8272 73.9784 35.6843C73.026 35.4932 72.1794 34.9005 71.6205 34.0327C71.0566 33.1572 70.8313 32.0727 70.9938 31.0158C70.9993 30.9799 71.0071 30.9444 71.0171 30.9097C71.3113 29.8884 71.9617 29.036 72.8265 28.5382C73.6838 28.0446 74.683 27.9391 75.6099 28.2436C76.1442 28.3833 76.6473 28.64 77.089 28.9984C77.5374 29.3622 77.9128 29.8231 78.1921 30.3525L78.196 30.3598L78.196 30.3598C78.6189 31.1818 79.1516 31.9297 79.7764 32.5788L79.2839 33.1489Z" fill="#BC9E78"/>
<path fill-rule="evenodd" clip-rule="evenodd" d="M69.0383 29.5371C70.0686 29.0193 71.2199 28.8647 72.3336 29.0944C72.3432 29.0964 72.3528 29.0986 72.3623 29.101C73.1349 29.2966 73.8613 29.6683 74.4943 30.192C75.1273 30.7157 75.6527 31.3796 76.0363 32.1406C76.2276 32.5202 76.1022 32.998 75.756 33.2078C75.4099 33.4177 74.9741 33.2801 74.7828 32.9005C74.4964 32.3324 74.1042 31.8368 73.6317 31.4458C73.1631 31.0581 72.6259 30.782 72.0544 30.635C71.2363 30.4696 70.3915 30.5847 69.635 30.9649C69.2755 31.1456 68.8504 30.9725 68.6856 30.5782C68.5209 30.1839 68.6788 29.7178 69.0383 29.5371Z" fill="#BC9E78"/>
<path fill-rule="evenodd" clip-rule="evenodd" d="M34.4941 46.5335C34.8209 46.2892 35.2665 46.3817 35.4892 46.74C37.1236 49.3692 38.1559 54.1155 38.1559 59.4176C38.1559 63.39 37.5772 67.0261 36.6155 69.698C36.1354 71.0317 35.5459 72.1645 34.8546 72.9769C34.1621 73.7906 33.3156 74.3385 32.348 74.3385H27.6144C27.2189 74.3385 26.8982 73.9869 26.8982 73.5532C26.8982 73.1195 27.2189 72.7679 27.6144 72.7679H32.348C32.7877 72.7679 33.2813 72.5236 33.8074 71.9054C34.3346 71.2859 34.8421 70.3469 35.2832 69.1214C36.1637 66.675 36.7237 63.2433 36.7237 59.4176C36.7237 54.2593 35.7079 49.8802 34.3058 47.6247C34.083 47.2663 34.1673 46.7778 34.4941 46.5335Z" fill="#7E7A74"/>
<path fill-rule="evenodd" clip-rule="evenodd" d="M45.3781 46.7073C45.7123 46.9392 45.8117 47.4244 45.6002 47.7908C44.2685 50.0983 43.2835 54.3992 43.2835 59.4176C43.2835 63.2434 43.8434 66.6752 44.7232 69.1217C45.1639 70.3473 45.6708 71.2863 46.1972 71.9059C46.7226 72.5243 47.2147 72.7679 47.652 72.7679H52.1135C52.509 72.7679 52.8297 73.1195 52.8297 73.5533C52.8297 73.987 52.509 74.3386 52.1135 74.3386H47.652C46.6856 74.3386 45.8403 73.79 45.1492 72.9765C44.459 72.164 43.8703 71.0314 43.3907 69.6978C42.43 67.026 41.8512 63.39 41.8512 59.4176C41.8512 54.2426 42.8572 49.6066 44.39 46.9509C44.6015 46.5844 45.0439 46.4753 45.3781 46.7073Z" fill="#7E7A74"/>
<path d="M24.9074 74.4014C25.3424 74.4014 25.6951 74.0146 25.6951 73.5376C25.6951 73.0605 25.3424 72.6737 24.9074 72.6737C24.4723 72.6737 24.1196 73.0605 24.1196 73.5376C24.1196 74.0146 24.4723 74.4014 24.9074 74.4014Z" fill="#7E7A74"/>
<path d="M54.9852 74.4014C55.4203 74.4014 55.773 74.0146 55.773 73.5376C55.773 73.0605 55.4203 72.6737 54.9852 72.6737C54.5502 72.6737 54.1975 73.0605 54.1975 73.5376C54.1975 74.0146 54.5502 74.4014 54.9852 74.4014Z" fill="#7E7A74"/>
</svg>
