<svg width="20" height="16" viewBox="0 0 20 16" fill="none" xmlns="http://www.w3.org/2000/svg">
<path fill-rule="evenodd" clip-rule="evenodd" d="M10.2213 0.742865C10.4005 0.852069 11.3349 1.76715 11.6604 2.15218C11.8148 2.33477 12.0429 2.6202 12.1674 2.78643C12.3049 2.97 12.4112 3.07804 12.4382 3.06155C12.4626 3.04659 12.6673 2.91419 12.8929 2.76729C13.3866 2.44597 14.4722 1.90315 15.0543 1.68661C15.813 1.40438 15.8524 1.42075 16.2442 2.181C16.725 3.11358 17.0812 4.1297 17.2749 5.12055C17.3399 5.45351 17.3987 5.74461 17.4054 5.76746C17.4141 5.79656 17.5562 5.79495 17.8809 5.76203C18.1357 5.73621 18.6356 5.70235 18.992 5.68677C19.7236 5.65482 19.8316 5.68009 19.9512 5.91139C20.0659 6.13308 19.9674 7.54684 19.7693 8.52218C19.2495 11.0821 17.7502 13.1804 15.5604 14.4128C13.8752 15.3612 11.3965 15.8116 8.88761 15.6251C6.14832 15.4215 4.05199 14.5338 2.51535 12.9267C0.932517 11.2714 0.124572 9.24092 0.0122266 6.6361C-0.0100455 6.11999 -0.00461341 6.01954 0.0513425 5.91139C0.170994 5.68009 0.278964 5.65482 1.01059 5.68677C1.36693 5.70235 1.86691 5.73621 2.12165 5.76203C2.44641 5.79496 2.5885 5.79656 2.59713 5.76746C2.60389 5.74461 2.66266 5.45352 2.72772 5.12055C2.92135 4.1297 3.27761 3.11358 3.75833 2.181C4.15022 1.42075 4.18961 1.40438 4.94832 1.68661C5.5304 1.90315 6.61602 2.44597 7.10963 2.76729C7.3353 2.91419 7.53994 3.04659 7.56437 3.06155C7.59133 3.07804 7.69769 2.97 7.83516 2.78643C8.22937 2.26002 8.60731 1.83523 9.14086 1.31881C9.84447 0.6378 9.95357 0.579643 10.2213 0.742865ZM9.44925 2.18147C8.84802 2.7946 8.60493 3.08803 8.19545 3.69495C7.46484 4.77786 7.01159 5.88807 6.77635 7.17107C6.67893 7.70249 6.65725 8.85953 6.73395 9.43641C6.9672 11.1913 7.72513 12.6757 9.02887 13.9311C9.36903 14.2586 9.94213 14.7287 10.0013 14.7287C10.0604 14.7287 10.6335 14.2586 10.9737 13.9311C12.2774 12.6757 13.0354 11.1913 13.2686 9.43641C13.3453 8.85953 13.3236 7.70249 13.2262 7.17107C12.9456 5.6408 12.3033 4.24816 11.2986 2.99191C11.0746 2.71175 10.047 1.64443 10.0013 1.64443C9.98734 1.64443 9.73893 1.88612 9.44925 2.18147ZM14.4169 2.8674C13.9657 3.07987 13.0906 3.5909 12.8591 3.77713C12.8512 3.78345 12.9338 3.95511 13.0426 4.1586C13.4226 4.86957 13.7207 5.64626 13.8915 6.37039C13.9447 6.59595 13.9964 6.80287 14.0063 6.83025C14.0194 6.86615 14.0981 6.84295 14.2891 6.74706C14.8697 6.45538 15.8155 6.11581 16.3219 6.01719C16.6147 5.96021 16.6091 5.9872 16.4691 5.29603C16.2949 4.43564 15.9825 3.52087 15.6095 2.77866L15.4344 2.43023L15.0722 2.57978C14.873 2.66207 14.5781 2.79147 14.4169 2.8674ZM4.39422 2.77632C4.02006 3.52091 3.70795 4.43462 3.53344 5.29604C3.39343 5.9872 3.38792 5.96021 3.68068 6.01719C4.18703 6.11581 5.13288 6.45538 5.71351 6.74706C5.90444 6.84295 5.98322 6.86615 5.99627 6.83025C6.00619 6.80287 6.05789 6.59595 6.11108 6.37039C6.28184 5.64626 6.57995 4.86957 6.96001 4.1586C7.0688 3.95511 7.15137 3.78345 7.14347 3.77713C6.72188 3.43803 5.30036 2.69047 4.57983 2.42898C4.57467 2.4271 4.49113 2.58341 4.39422 2.77632ZM18.1236 6.56634C17.1972 6.65727 16.4891 6.79897 15.7842 7.03448C15.2224 7.2222 14.9752 7.32921 14.511 7.58566L14.1557 7.78193L14.1533 8.47247C14.1471 10.1902 13.7082 11.658 12.7853 13.0471C12.4315 13.5796 12.1896 13.8753 11.686 14.3905L11.3103 14.775L11.4667 14.7526C11.5526 14.7402 11.7724 14.7109 11.9551 14.6873C13.4966 14.4886 14.9078 13.9417 16.0442 13.1027C16.7036 12.6159 17.5503 11.6597 18.0058 10.8876C18.6499 9.79581 19.0451 8.42564 19.1289 6.99332L19.1562 6.52662L18.8422 6.52662C18.6695 6.52662 18.3461 6.54451 18.1236 6.56634ZM0.873665 6.99332C0.957486 8.42564 1.35263 9.79581 1.99676 10.8876C2.45224 11.6597 3.29902 12.6159 3.95836 13.1027C5.09478 13.9417 6.50594 14.4886 8.04747 14.6873C8.23015 14.7109 8.44996 14.7402 8.53592 14.7526L8.69223 14.775L8.31655 14.3905C7.81301 13.8753 7.57109 13.5796 7.21729 13.0471C6.29462 11.6583 5.85434 10.1865 5.84872 8.47235L5.84645 7.7817L5.49136 7.58555C5.02737 7.32921 4.78013 7.2222 4.21833 7.03449C3.32536 6.73613 2.173 6.54181 1.23286 6.53103L0.846352 6.52662L0.873665 6.99332Z" fill="#BC9E78"/>
</svg>
