<svg width="20" height="15" viewBox="0 0 20 15" fill="none" xmlns="http://www.w3.org/2000/svg">
<path fill-rule="evenodd" clip-rule="evenodd" d="M10.2213 0.0763608C10.4005 0.185566 11.3349 1.10064 11.6604 1.48567C11.8148 1.66827 12.0429 1.9537 12.1674 2.11993C12.3049 2.3035 12.4112 2.41153 12.4382 2.39505C12.4626 2.38009 12.6673 2.24769 12.8929 2.10079C13.3866 1.77946 14.4722 1.23664 15.0543 1.02011C15.813 0.737878 15.8524 0.754243 16.2442 1.5145C16.725 2.44707 17.0812 3.46319 17.2749 4.45405C17.3399 4.78701 17.3987 5.07811 17.4054 5.10095C17.4141 5.13005 17.5562 5.12845 17.8809 5.09553C18.1357 5.06971 18.6356 5.03585 18.992 5.02026C19.7236 4.98831 19.8316 5.01358 19.9512 5.24488C20.0659 5.46657 19.9674 6.88034 19.7693 7.85568C19.2495 10.4156 17.7502 12.5139 15.5604 13.7463C13.8752 14.6947 11.3965 15.1451 8.88761 14.9586C6.14832 14.755 4.05199 13.8673 2.51535 12.2602C0.932517 10.6049 0.124572 8.57442 0.0122266 5.9696C-0.0100455 5.45349 -0.00461341 5.35303 0.0513425 5.24488C0.170994 5.01358 0.278964 4.98831 1.01059 5.02026C1.36693 5.03585 1.86691 5.06971 2.12165 5.09553C2.44641 5.12845 2.5885 5.13005 2.59713 5.10096C2.60389 5.07811 2.66266 4.78701 2.72772 4.45405C2.92135 3.4632 3.27761 2.44708 3.75833 1.5145C4.15022 0.754244 4.18961 0.737879 4.94832 1.02011C5.5304 1.23664 6.61602 1.77946 7.10963 2.10079C7.3353 2.24769 7.53994 2.38009 7.56437 2.39505C7.59133 2.41153 7.69769 2.3035 7.83516 2.11993C8.22937 1.59351 8.60731 1.16872 9.14086 0.652303C9.84447 -0.0287039 9.95357 -0.0868606 10.2213 0.0763608ZM9.44925 1.51497C8.84802 2.12809 8.60493 2.42153 8.19545 3.02845C7.46484 4.11135 7.01159 5.22156 6.77635 6.50457C6.67893 7.03598 6.65725 8.19302 6.73395 8.7699C6.9672 10.5248 7.72513 12.0092 9.02887 13.2646C9.36903 13.5921 9.94213 14.0622 10.0013 14.0622C10.0604 14.0622 10.6335 13.5921 10.9737 13.2646C12.2774 12.0092 13.0354 10.5248 13.2686 8.7699C13.3453 8.19302 13.3236 7.03598 13.2262 6.50457C12.9456 4.97429 12.3033 3.58166 11.2986 2.32541C11.0746 2.04525 10.047 0.977926 10.0013 0.977926C9.98734 0.977926 9.73893 1.21961 9.44925 1.51497ZM14.4169 2.20089C13.9657 2.41337 13.0906 2.9244 12.8591 3.11062C12.8512 3.11695 12.9338 3.28861 13.0426 3.4921C13.4226 4.20306 13.7207 4.97976 13.8915 5.70389C13.9447 5.92944 13.9964 6.13637 14.0063 6.16375C14.0194 6.19964 14.0981 6.17644 14.2891 6.08056C14.8697 5.78887 15.8155 5.44931 16.3219 5.35069C16.6147 5.2937 16.6091 5.32069 16.4691 4.62953C16.2949 3.76913 15.9825 2.85437 15.6095 2.11216L15.4344 1.76372L15.0722 1.91327C14.873 1.99557 14.5781 2.12497 14.4169 2.20089ZM4.39422 2.10981C4.02006 2.85441 3.70795 3.76812 3.53344 4.62953C3.39343 5.32069 3.38792 5.2937 3.68068 5.35069C4.18703 5.44931 5.13288 5.78888 5.71351 6.08056C5.90444 6.17644 5.98322 6.19964 5.99627 6.16375C6.00619 6.13637 6.05789 5.92944 6.11108 5.70389C6.28184 4.97976 6.57995 4.20306 6.96001 3.4921C7.0688 3.28861 7.15137 3.11695 7.14347 3.11062C6.72188 2.77153 5.30036 2.02396 4.57983 1.76247C4.57467 1.7606 4.49113 1.91691 4.39422 2.10981ZM18.1236 5.89984C17.1972 5.99076 16.4891 6.13246 15.7842 6.36798C15.2224 6.55569 14.9752 6.66271 14.511 6.91916L14.1557 7.11542L14.1533 7.80596C14.1471 9.52371 13.7082 10.9915 12.7853 12.3806C12.4315 12.9131 12.1896 13.2088 11.686 13.724L11.3103 14.1085L11.4667 14.0861C11.5526 14.0737 11.7724 14.0443 11.9551 14.0208C13.4966 13.8221 14.9078 13.2752 16.0442 12.4362C16.7036 11.9494 17.5503 10.9932 18.0058 10.2211C18.6499 9.12931 19.0451 7.75913 19.1289 6.32681L19.1562 5.86012L18.8422 5.86012C18.6695 5.86012 18.3461 5.878 18.1236 5.89984ZM0.873665 6.32682C0.957486 7.75913 1.35263 9.12931 1.99676 10.2211C2.45224 10.9932 3.29902 11.9494 3.95836 12.4362C5.09478 13.2752 6.50594 13.8221 8.04747 14.0208C8.23015 14.0443 8.44996 14.0737 8.53592 14.0861L8.69223 14.1085L8.31655 13.724C7.81301 13.2088 7.57109 12.9131 7.21729 12.3806C6.29462 10.9918 5.85434 9.52004 5.84872 7.80585L5.84645 7.11519L5.49136 6.91904C5.02737 6.66271 4.78013 6.55569 4.21833 6.36798C3.32536 6.06962 2.173 5.87531 1.23286 5.86453L0.846352 5.86012L0.873665 6.32682Z" fill="white"/>
</svg>
