<svg width="72" height="30" viewBox="0 0 72 30" fill="none" xmlns="http://www.w3.org/2000/svg">
<path d="M0.00349397 29.4181C0.0298915 29.2996 0.229058 28.2335 0.446086 27.0491C1.1146 23.4008 1.68605 21.3616 2.5969 19.3743C4.05256 16.1982 6.2255 14.0767 8.36007 13.7474C9.10025 13.6333 10.0438 13.7236 10.7651 13.9776C11.6658 14.2948 12.594 15.1028 13.1131 16.0212C13.3893 16.51 13.8078 17.6642 14.0072 18.4874C14.1459 19.0601 14.1499 19.0652 14.6137 19.2646C15.5099 19.6497 16.3075 20.8484 16.5188 22.1276C16.8046 23.858 15.7959 25.7091 14.0926 26.5799C13.4033 26.9323 13.3884 26.9354 12.3872 26.932C11.2531 26.9282 10.7894 26.7963 9.19508 26.0237C7.4368 25.1717 6.07282 25.1203 4.54049 25.8483C3.54555 26.3211 2.71591 26.9765 0.900078 28.7244C0.199761 29.3985 -0.0320903 29.5779 0.00349397 29.4181ZM2.76541 25.9795C3.221 25.6283 3.94795 25.1621 4.38086 24.9436C6.00639 24.1228 6.92934 24.1596 9.6888 25.1552C12.1578 26.0459 13.9958 25.9834 14.871 24.9789C15.3905 24.3826 15.5583 23.9428 15.6012 23.0651C15.6748 21.5589 15.0993 20.6361 13.9145 20.3608C13.088 20.1687 12.2956 20.5553 12.2956 21.1506C12.2956 21.3687 12.6538 21.8218 12.9086 21.9259C13.0239 21.973 13.0238 21.9907 12.9078 22.0793C12.7852 22.1729 12.6793 22.1669 12.0533 22.0311C11.8391 21.9846 11.7986 22.0141 11.704 22.2853C11.6452 22.4541 11.4689 22.7288 11.3122 22.8957C10.6416 23.6106 9.81152 23.7094 8.34959 23.2483C7.23754 22.8976 6.00919 22.8033 5.31236 23.0151C4.90296 23.1395 4.87283 23.1385 4.94178 23.0025C4.98306 22.9211 5.20237 22.2832 5.42913 21.5849C6.18282 19.2639 6.71196 18.4077 7.7146 17.8866C9.13222 17.1499 10.537 17.4117 11.8144 18.6509L12.3763 19.1959L13.3504 18.9862L13.2931 18.6532C13.2016 18.1215 12.9086 17.2758 12.6144 16.6948C11.8204 15.1262 10.424 14.3536 8.64929 14.5011C7.51556 14.5953 6.67153 15.0661 5.53293 16.2391C4.21045 17.6016 3.34531 19.326 2.67642 21.9328C2.40934 22.9736 1.71351 26.2687 1.71351 26.4926C1.71351 26.7273 1.93613 26.6187 2.76541 25.9795ZM10.8061 22.4917C11.024 22.3763 11.3162 22.1576 11.4554 22.0056L11.7084 21.7292L11.521 21.2775C11.4179 21.029 11.3336 20.7399 11.3336 20.6349C11.3336 20.4551 11.5548 19.9625 11.7915 19.6152C11.8811 19.4836 11.8524 19.4107 11.6079 19.1491C11.079 18.5833 10.5122 18.3337 9.65969 18.2912C8.39172 18.228 7.65345 18.6255 6.95373 19.7481C6.63384 20.2613 6.15775 21.3451 6.04313 21.8209L5.98628 22.057L6.58285 22.0585C7.0174 22.0596 7.45258 22.1478 8.18516 22.3834C8.73832 22.5613 9.28928 22.7258 9.40953 22.749C9.78666 22.8216 10.3943 22.7096 10.8061 22.4917ZM70.7594 28.4196C69.2931 27.012 68.3929 26.3075 67.5236 25.8872C65.9306 25.117 64.5879 25.1557 62.7968 26.0237C61.2024 26.7963 60.7388 26.9282 59.6046 26.932C58.6035 26.9354 58.5886 26.9323 57.8992 26.5799C56.196 25.7091 55.1872 23.858 55.4731 22.1276C55.6827 20.8588 56.4821 19.6504 57.3637 19.27L57.816 19.0748L58.1054 18.0626C58.4986 16.6871 58.902 15.8519 59.4926 15.1903C60.272 14.3174 61.1304 13.8811 62.3529 13.7365C64.1259 13.5268 65.6295 14.2266 67.2544 16.0177C69.3252 18.3002 70.5328 21.4423 71.59 27.2982C71.7881 28.3955 71.9664 29.3443 71.9861 29.4067C72.0594 29.6381 71.8697 29.4855 70.7594 28.4196ZM70.2784 26.5402C70.2784 26.3667 69.6356 23.2392 69.3998 22.2656C68.9818 20.5397 68.3212 18.8361 67.6729 17.8122C67.3116 17.2415 67.1592 17.031 66.8917 16.7331C66.735 16.5585 66.6064 16.3897 66.606 16.3579C66.605 16.2769 65.4319 15.2905 65.0929 15.0855C64.2134 14.5538 63.2878 14.3765 62.2544 14.5418C60.8188 14.7714 59.912 15.5303 59.1869 17.1091C58.9462 17.6331 58.5995 18.8907 58.6743 18.9683C58.6913 18.9859 58.9281 19.0467 59.2005 19.1034C59.6849 19.2043 59.7 19.2012 59.8777 18.9669C60.5675 18.0576 61.7135 17.457 62.7537 17.4596C63.6095 17.4617 64.6088 17.9298 65.1915 18.6016C65.7519 19.2477 65.9431 19.662 66.6102 21.6755C67.1346 23.2584 67.1174 23.1144 66.7711 23.0233C66.6077 22.9803 66.0412 22.9492 65.5121 22.9541C64.6877 22.9618 64.426 23.0041 63.6825 23.2502C62.6182 23.6024 61.9136 23.6375 61.3255 23.3678C60.8641 23.1561 60.4434 22.7257 60.2592 22.2771C60.1535 22.0195 60.1031 21.9819 59.937 22.0371C59.5581 22.163 59.1858 22.1916 59.0386 22.1061C58.9105 22.0318 58.9336 21.9921 59.2068 21.817C59.7404 21.475 59.8452 21.0509 59.4877 20.6802C58.846 20.0147 57.4305 20.3117 56.811 21.2418C56.5072 21.6981 56.381 22.1661 56.3764 22.8545C56.3713 23.6161 56.551 24.1874 56.9803 24.7737C57.3441 25.2707 57.7191 25.5124 58.3845 25.6787C59.393 25.9309 60.5554 25.7539 62.6372 25.0312C63.4133 24.7617 64.3154 24.493 64.642 24.434C65.8834 24.2099 67.3497 24.5627 68.3189 25.3187C68.4677 25.4348 68.635 25.5298 68.6906 25.5298C68.7462 25.5298 68.7916 25.5678 68.7916 25.6143C68.7916 25.6609 68.8605 25.7216 68.9447 25.7494C69.0289 25.7771 69.1961 25.8928 69.3164 26.0064C69.8869 26.5455 70.2784 26.7627 70.2784 26.5402ZM63.6465 22.39C64.3269 22.1645 64.8431 22.0523 65.2934 22.032C65.6542 22.0158 65.9588 22.0004 65.9705 21.9977C65.9821 21.9951 65.894 21.7241 65.7747 21.3955C65.2682 20.0001 64.5558 18.9923 63.775 18.5667C63.384 18.3535 63.2236 18.3217 62.5386 18.3209C61.8466 18.3202 61.6934 18.351 61.2705 18.5756C61.0059 18.7161 60.6443 18.9771 60.4667 19.1555L60.144 19.48L60.3682 19.7848C60.6841 20.2143 60.7272 20.7623 60.4891 21.3206L60.3 21.7638L60.5885 22.0201C60.7471 22.1611 61.0737 22.3755 61.3142 22.4966C61.9365 22.8098 62.4509 22.7863 63.6465 22.39ZM35.6891 28.0463C35.0421 26.8002 34.337 25.9185 33.3285 25.0948C32.9918 24.8197 32.5085 24.3678 32.2545 24.0904L31.7926 23.5861L30.4179 24.0565C27.4106 25.0855 26.1772 25.3045 24.8841 25.0389C22.744 24.5993 21.6523 23.9707 19.1171 21.7178C18.3715 21.0553 17.5393 20.3425 17.2677 20.1338L16.7739 19.7543L17.2677 19.5047C17.9584 19.1555 19.3794 18.171 19.3794 18.0416C19.3794 17.9826 19.3227 17.8854 19.2534 17.8258C18.9992 17.607 18.0722 16.1096 17.4215 14.8666C15.7474 11.6688 15.0864 9.08097 14.4463 3.2196C14.3347 2.19766 14.2479 1.35698 14.2534 1.3514C14.2588 1.34583 14.9323 1.51612 15.75 1.72982C17.6083 2.21546 18.5841 2.56935 19.6325 3.13788C20.0844 3.3829 20.4826 3.58338 20.5175 3.58338C20.5524 3.58338 20.604 3.43608 20.6321 3.25604C20.67 3.01426 21.1704 1.74561 21.3542 1.42554C21.3681 1.4013 22.4064 2.15175 22.9809 2.60127C23.1099 2.70217 23.3219 2.94402 23.452 3.13871C23.5821 3.3334 23.7324 3.49064 23.786 3.48814C23.8395 3.48564 23.9906 3.25098 24.1217 2.96668C24.2527 2.68239 24.4546 2.3286 24.5704 2.18048L24.7808 1.91118L25.2504 2.03168C26.2208 2.2807 28.1012 3.33475 29.4682 4.39591C29.7981 4.65201 30.1065 4.84824 30.1535 4.83198C30.2006 4.81572 30.3093 4.59954 30.3952 4.3516C30.4811 4.10365 30.8189 3.3393 31.1459 2.65304C31.6794 1.53351 31.7559 1.41703 31.8902 1.51945C33.2408 2.54872 33.8662 3.19737 34.1662 3.88003C34.226 4.01614 34.323 4.1275 34.3817 4.1275C34.4761 4.1275 35.5275 1.74001 35.8295 0.840079C35.8923 0.653035 35.9654 0.5 35.9921 0.5C36.0187 0.5 36.1348 0.755059 36.25 1.0668C36.7656 2.46241 37.5138 4.1275 37.6252 4.1275C37.6911 4.1275 37.745 4.09134 37.745 4.04715C37.745 4.00296 37.9071 3.71517 38.1051 3.40762C38.3471 3.03183 38.7514 2.60994 39.3379 2.12124C39.8179 1.72129 40.2223 1.40714 40.2367 1.42313C40.3615 1.56175 41.6038 4.32109 41.6456 4.55259C41.6773 4.72773 41.7526 4.853 41.8261 4.853C41.8954 4.853 42.2354 4.63749 42.5816 4.37408C44.1142 3.2079 45.815 2.24902 46.7463 2.02609L47.2102 1.91507L47.4593 2.22777C47.5963 2.39976 47.7984 2.75402 47.9084 3.01503C48.0185 3.27604 48.1545 3.49029 48.2107 3.49114C48.2669 3.49201 48.3953 3.35429 48.4962 3.18514C48.6969 2.84829 49.1046 2.48527 50.0148 1.83295C50.646 1.38056 50.6884 1.35906 50.6884 1.49094C50.6884 1.53718 50.8309 1.89426 51.0052 2.28446C51.1794 2.67466 51.342 3.14694 51.3665 3.33399C51.4203 3.74448 51.5024 3.75386 52.1076 3.41873C53.3267 2.74365 55.0496 2.08182 56.9692 1.55123L57.7841 1.32599L57.737 1.57048C57.7111 1.70495 57.6094 2.59035 57.5111 3.53803C57.152 6.9976 56.5945 9.86858 55.8822 11.9266C55.3262 13.5332 54.0106 16.0874 53.0747 17.3775C52.8204 17.7279 52.6126 18.0426 52.6128 18.0767C52.6132 18.1724 54.1699 19.2256 54.7241 19.5052L55.2179 19.7543L54.7241 20.1337C54.4526 20.3424 53.7187 20.9728 53.0934 21.5347C50.9397 23.4699 49.7337 24.2735 48.2834 24.7399C46.2593 25.3907 45.3567 25.3078 41.8726 24.1506L40.1843 23.5899L39.7299 24.0958C39.48 24.374 39.0197 24.8059 38.707 25.0556C37.699 25.8604 36.8654 26.9136 36.268 28.137C36.1645 28.349 36.0475 28.5225 36.0081 28.5225C35.9686 28.5225 35.825 28.3082 35.6891 28.0463ZM36.9967 25.6431C37.4804 25.1568 38.1998 24.5192 38.5953 24.2262C39.1668 23.8027 39.3598 23.599 39.5355 23.2335C40.1614 21.931 39.4199 20.3606 38.1791 20.3606C37.6441 20.3606 37.3078 20.7351 37.3078 21.331C37.3078 21.5899 37.3661 21.8575 37.4493 21.9808C37.5697 22.1591 37.6529 22.1858 38.0056 22.1597C38.414 22.1295 38.4185 22.132 38.2953 22.3267C37.7661 23.1631 36.8339 22.8478 36.5975 21.7527C36.3423 20.57 37.1618 19.5444 38.362 19.5444H38.864L39.3877 18.7055C40.1535 17.4788 40.4937 16.793 40.816 15.8262C41.0929 14.9956 41.1034 14.9126 41.1076 13.5137C41.1115 12.2419 41.0869 11.9786 40.9085 11.3825C40.5369 10.1405 39.6449 8.59362 38.3016 6.8618C37.3689 5.65927 36.6982 4.5319 36.3646 3.60597C36.2216 3.20891 36.0825 2.95597 36.0149 2.97023C35.9532 2.98325 35.767 3.31812 35.6012 3.71438C35.1701 4.74472 34.5765 5.72746 33.7163 6.83544C32.3609 8.58121 31.463 10.1238 31.096 11.3372C30.8206 12.2479 30.7582 14.0033 30.9667 14.976C31.2503 16.2989 31.8176 17.5365 32.8724 19.1335L33.1701 19.5842L33.7366 19.587C34.488 19.5906 34.9535 19.8915 35.2583 20.5705C35.511 21.1332 35.5239 21.5465 35.3043 22.0478C34.9173 22.9315 34.219 23.0789 33.7376 22.3786L33.5661 22.129L33.9835 22.1597C34.3391 22.1858 34.422 22.1593 34.5425 21.9808C34.6258 21.8575 34.6841 21.5899 34.6841 21.331C34.6841 20.9614 34.6414 20.8465 34.4179 20.6148C34.1743 20.3621 34.1126 20.3421 33.6884 20.3786C33.0935 20.4298 32.7513 20.6828 32.4615 21.2859C32.2986 21.625 32.2359 21.8973 32.2373 22.2601C32.2407 23.1595 32.5921 23.6686 33.8276 24.5641C34.1502 24.7979 34.7377 25.3352 35.1331 25.7582C35.5286 26.1812 35.9118 26.5273 35.9847 26.5273C36.0575 26.5273 36.5129 26.1294 36.9967 25.6431ZM35.7128 24.5256C35.3187 24.2875 35.3596 23.7485 35.7869 23.5466C36.0559 23.4195 36.3772 23.5617 36.5114 23.8672C36.7187 24.3391 36.1627 24.7974 35.7128 24.5256ZM35.6898 19.2741C35.1082 19.1389 34.8091 18.7824 35.0377 18.4968C35.1293 18.3823 35.1812 18.389 35.4269 18.5465C35.7317 18.7418 36.2174 18.7797 36.6743 18.6438C37.0075 18.5448 37.0344 18.6221 36.76 18.8894C36.467 19.1749 35.994 19.3449 35.6898 19.2741ZM35.5352 17.41C35.3557 17.2835 35.2088 17.1644 35.2088 17.1453C35.2088 17.1263 35.1861 17.0491 35.1582 16.9739C35.1134 16.8527 35.155 16.852 35.5258 16.9677C35.9313 17.0943 36.6789 17.0376 36.9849 16.8572C37.0422 16.8234 36.9711 16.9281 36.8268 17.0899C36.5545 17.3952 36.1763 17.64 35.9768 17.64C35.9135 17.64 35.7147 17.5365 35.5352 17.41ZM35.6898 15.7482C35.5455 15.6557 35.3488 15.4862 35.2526 15.3715L35.0776 15.1629L35.2963 15.2248C35.9452 15.4086 36.3292 15.3981 36.6573 15.1879C36.9679 14.9888 36.9877 14.9868 37.098 15.1433C37.2567 15.3684 37.1124 15.6251 36.7351 15.7885C36.3343 15.9622 36.0041 15.9494 35.6898 15.7482ZM35.583 13.8748C35.4787 13.7991 35.3112 13.6174 35.2108 13.4712L35.0282 13.2052L35.4332 13.3484C35.8236 13.4863 36.4349 13.4777 36.8049 13.329C37.0898 13.2146 36.9625 13.4638 36.595 13.7398C36.1941 14.0409 35.871 14.084 35.583 13.8748ZM35.4305 11.9172C35.0514 11.5721 35.0426 11.4926 35.3894 11.5454C35.5368 11.5678 35.8965 11.5336 36.1889 11.4692C36.6813 11.3609 36.7291 11.3648 36.8403 11.5224C37.0029 11.753 36.9569 11.8533 36.6029 12.0399C36.1448 12.2813 35.7896 12.2441 35.4305 11.9172ZM35.4459 10.104C35.2198 9.87567 35.1436 9.75486 35.2486 9.79082C35.7545 9.96409 36.1655 9.95272 36.486 9.75658C36.7426 9.59963 36.8253 9.583 36.8827 9.67687C37.0431 9.93906 36.8819 10.2408 36.5095 10.3754C36.0336 10.5474 35.8352 10.4968 35.4459 10.104ZM35.6368 8.34475C35.5114 8.27409 35.3432 8.11248 35.2631 7.98564L35.1173 7.75501L35.5785 7.75451C35.8321 7.75426 36.192 7.71015 36.3781 7.65656C36.5811 7.59811 36.7484 7.5921 36.796 7.64153C36.9127 7.76255 36.5422 8.20836 36.2027 8.35547C35.8624 8.50292 35.9193 8.50399 35.6368 8.34475ZM35.7748 6.05905C35.6405 5.7656 35.6365 5.69526 35.743 5.49953C35.9208 5.17259 36.0509 5.17006 36.159 5.49144C36.2328 5.71105 36.2261 5.84551 36.1296 6.08503C36.061 6.25534 35.9877 6.39469 35.9666 6.39469C35.9456 6.39469 35.8593 6.24365 35.7748 6.05905ZM27.7751 24.0884C28.184 23.9802 29.1924 23.6653 30.0161 23.3886L31.5136 22.8854L31.567 22.2351C31.5963 21.8775 31.6441 21.4595 31.6731 21.3063C31.7254 21.0303 31.7214 21.0268 31.2154 20.91C30.9346 20.8453 30.4359 20.692 30.1072 20.5694L29.5095 20.3466L29.1889 20.5626C28.715 20.882 28.0611 21.1478 27.4748 21.2594C25.4255 21.6494 22.5032 20.7826 20.6334 19.2302C20.2408 18.9042 19.8771 18.6375 19.8252 18.6375C19.7732 18.6375 19.5626 18.7701 19.357 18.9322C19.1515 19.0943 18.797 19.3289 18.5692 19.4535C18.3414 19.5782 18.1551 19.7249 18.1551 19.7797C18.1551 19.9665 20.9891 22.4427 21.8884 23.0417C22.7308 23.6027 23.7511 24.0274 24.8105 24.258C25.4343 24.3939 26.9475 24.3072 27.7751 24.0884ZM25.3264 23.1123C24.7918 23.0122 23.9047 22.6615 23.118 22.2393C22.6489 21.9876 22.2766 21.7698 22.2905 21.7554C22.3044 21.7409 22.6095 21.8082 22.9684 21.9049C24.325 22.2703 25.4392 22.3836 27.0665 22.3215C27.9033 22.2896 28.8084 22.2429 29.0779 22.2178L29.568 22.1721L28.9558 22.4044C27.7238 22.8721 25.9208 23.2237 25.3264 23.1123ZM47.9773 24.0381C49.1003 23.6882 50.0217 23.1828 51.0411 22.3578C51.8865 21.6736 53.8368 19.8756 53.8368 19.7804C53.8368 19.7252 53.6548 19.58 53.4323 19.4576C53.2098 19.3352 52.858 19.1006 52.6505 18.9363C52.4429 18.772 52.2313 18.6375 52.1801 18.6375C52.129 18.6375 51.7626 18.9056 51.3659 19.2332C48.8216 21.3345 44.9369 21.9696 42.8883 20.6191L42.4781 20.3487L41.7076 20.6206C41.2839 20.7701 40.7859 20.9209 40.6011 20.9556C40.292 21.0137 40.2696 21.0377 40.321 21.2564C40.3517 21.3872 40.3995 21.8066 40.4273 22.1884L40.4777 22.8826L41.9755 23.3918C44.3079 24.1847 45.1189 24.358 46.2719 24.3099C46.9618 24.2812 47.4442 24.2043 47.9773 24.0381ZM45.5165 23.0747C44.8447 22.9723 43.7985 22.6875 42.9049 22.3636L42.1615 22.0942L43.1673 22.1569C45.0452 22.2741 47.9492 22.2218 48.8081 22.0554C49.8152 21.8602 49.8538 21.8655 49.3617 22.1313C48.6579 22.5113 47.6811 22.881 46.9891 23.0292C46.2647 23.1844 46.2415 23.1851 45.5165 23.0747ZM47.4526 19.9339C48.9036 19.583 50.3743 18.6203 51.914 17.0136C54.1366 14.6943 55.2016 12.4819 55.9864 8.55391C56.3526 6.72136 56.9014 2.5594 56.7919 2.44587C56.7182 2.3694 55.214 2.82773 54.2228 3.22869C52.5678 3.89817 51.1068 4.77399 49.6483 5.97085L48.9143 6.57321L48.8975 8.63778C48.8782 11.0086 48.7857 11.7777 48.3603 13.1056C47.6229 15.4071 46.2479 17.5301 44.6064 18.9014C44.2237 19.2211 43.8987 19.5333 43.884 19.5953C43.8499 19.7395 44.5573 19.985 45.2803 20.0797C45.9519 20.1677 46.6913 20.1181 47.4526 19.9339ZM47.5814 17.071C47.9898 16.4508 48.3829 15.9992 49.0018 15.4393C51.4646 13.2113 52.0119 12.3422 53.6124 8.11776C53.9242 7.29476 54.181 6.65409 54.183 6.69404C54.1926 6.8869 53.5229 9.45793 53.1886 10.5114C52.69 12.0828 52.2994 12.8651 51.4427 14.0087C50.2291 15.6287 48.9596 16.8027 47.5189 17.6375L47.0168 17.9285L47.5814 17.071ZM27.5473 19.9035C27.865 19.8017 28.1246 19.6691 28.1243 19.6088C28.1239 19.5484 27.844 19.2746 27.5023 19.0003C25.3984 17.3113 23.5965 14.0939 23.2106 11.3372C23.1445 10.8644 23.0964 9.69725 23.0963 8.56325L23.0963 6.60552L22.4096 6.02869C20.9762 4.82472 19.3865 3.87353 17.6378 3.17362C16.7334 2.81162 15.2679 2.37543 15.1983 2.44754C15.1334 2.51487 15.4027 4.88312 15.673 6.62141C16.4614 11.6914 17.5341 14.3024 19.8583 16.8085C21.337 18.403 22.9457 19.4981 24.4103 19.9072C25.2869 20.1521 26.7767 20.1503 27.5473 19.9035ZM24.1944 17.4563C22.7178 16.5263 21.7231 15.5835 20.5261 13.9795C19.6911 12.8605 19.2969 12.067 18.8032 10.5114C18.4656 9.4474 17.7977 6.8801 17.8101 6.69404C17.8128 6.65409 18.0692 7.29476 18.3799 8.11776C19.5548 11.2295 19.9549 12.0469 20.8936 13.2525C21.439 13.9529 22.547 15.0833 23.4428 15.8531C23.6851 16.0613 24.1276 16.6098 24.4262 17.0719C24.7247 17.534 24.9575 17.912 24.9435 17.912C24.9295 17.912 24.5924 17.7069 24.1944 17.4563ZM32.2354 19.8212C32.2354 19.7739 32.004 19.3544 31.7211 18.8889C30.6496 17.1252 29.9189 15.309 29.8145 14.1499C29.6803 12.6589 30.3089 10.6784 31.5886 8.56137C31.8481 8.132 32.0604 7.73148 32.0604 7.67131C32.0604 7.53667 31.8306 7.33271 30.3037 6.11276C28.0233 4.29068 25.6392 2.76719 25.0683 2.76719C24.849 2.76719 24.784 2.83182 24.5899 3.2433C24.0412 4.40642 23.6857 6.80781 23.7833 8.6909C23.8898 10.7453 24.3341 12.3076 25.4258 14.4659C26.6067 16.8004 28.1077 18.4497 29.7977 19.2698C30.7313 19.7228 32.2354 20.063 32.2354 19.8212ZM29.2124 17.3513C26.4843 14.4084 25.6768 11.5349 26.3025 6.99676L26.4168 6.16797L26.5184 8.25379C26.5761 9.43911 26.6837 10.6528 26.7675 11.0651C27.0616 12.5119 27.956 14.3451 29.2674 16.1889C29.9434 17.1396 30.0075 17.2947 29.9006 17.7225L29.8275 18.0148L29.2124 17.3513ZM40.945 19.7237C43.6906 18.9956 45.849 16.6126 47.4179 12.5773C48.1489 10.6969 48.3833 8.69175 48.1428 6.37558C48.0247 5.2388 47.7044 3.8845 47.4019 3.2433C47.118 2.64137 46.9525 2.62871 45.9783 3.13437C44.4849 3.90947 39.9503 7.30195 39.9364 7.6545C39.9337 7.72391 40.1469 8.13475 40.4102 8.56747C41.0495 9.61816 41.7137 11.0818 41.9552 11.972C42.1038 12.5198 42.1526 12.9418 42.1545 13.695C42.1567 14.5852 42.127 14.7824 41.8784 15.5261C41.5452 16.5233 40.9142 17.8431 40.2454 18.942C39.9765 19.3838 39.7565 19.7817 39.7565 19.8262C39.7565 19.9582 40.2075 19.9193 40.945 19.7237ZM42.0768 17.6565C42.006 17.222 42.0246 17.1817 42.8227 16.039C43.8392 14.5838 44.4968 13.3869 44.871 12.3113C45.2647 11.1795 45.3685 10.4894 45.4746 8.29913L45.5778 6.16797L45.7381 7.38475C46.2411 11.2041 45.6074 13.8097 43.5275 16.4743C43.2412 16.8411 42.811 17.3394 42.5716 17.5817L42.1364 18.0223L42.0768 17.6565ZM33.129 6.40869C33.6206 5.77786 33.9819 5.1443 33.9834 4.9105C33.984 4.81742 33.8483 4.54897 33.6819 4.31394C33.2614 3.7199 32.0076 2.49513 31.8199 2.49513C31.6741 2.49513 31.1946 3.49417 30.6925 4.8442L30.544 5.2435L30.8864 5.52436C31.0747 5.67884 31.5044 6.05768 31.8414 6.36624C32.1783 6.6748 32.513 6.9297 32.5852 6.9327C32.6573 6.9357 32.902 6.69989 33.129 6.40869ZM40.1556 6.35311C40.5118 6.03097 40.9256 5.67389 41.0752 5.55959C41.31 5.38022 41.3416 5.3083 41.3064 5.03397C41.2436 4.54402 40.3464 2.54723 40.1736 2.51272C39.9056 2.45921 38.2478 4.19019 38.0528 4.72714C37.9824 4.92077 38.012 5.04751 38.2167 5.42965C38.5425 6.03779 39.2436 6.93805 39.3917 6.93848C39.4557 6.9386 39.7994 6.67525 40.1556 6.35311ZM23.4767 4.89108L23.6667 4.11296L23.4865 3.8506C23.135 3.33866 21.6651 2.25484 21.4425 2.34343C21.315 2.39417 20.9536 3.44715 20.9536 3.76798C20.9536 3.92965 22.9843 5.64912 23.1915 5.66287C23.2438 5.66634 23.3722 5.31904 23.4767 4.89108ZM49.5348 5.14175C49.9047 4.85166 50.3943 4.48242 50.6228 4.32121C50.9 4.12562 51.0382 3.9638 51.0382 3.83485C51.0382 3.51871 50.6564 2.38599 50.5333 2.33701C50.3155 2.25036 48.6245 3.53934 48.4096 3.95586C48.3151 4.13879 48.6493 5.66919 48.7837 5.66919C48.8269 5.66919 49.1649 5.43184 49.5348 5.14175Z" fill="#BC9E78"/>
</svg>
