<svg width="72" height="29" viewBox="0 0 72 29" fill="none" xmlns="http://www.w3.org/2000/svg">
<path d="M0.00349397 28.9181C0.0298915 28.7996 0.229058 27.7335 0.446086 26.5491C1.1146 22.9008 1.68605 20.8616 2.5969 18.8743C4.05256 15.6982 6.2255 13.5767 8.36007 13.2474C9.10025 13.1333 10.0438 13.2236 10.7651 13.4776C11.6658 13.7948 12.594 14.6028 13.1131 15.5212C13.3893 16.01 13.8078 17.1642 14.0072 17.9874C14.1459 18.5601 14.1499 18.5652 14.6137 18.7646C15.5099 19.1497 16.3075 20.3484 16.5188 21.6276C16.8046 23.358 15.7959 25.2091 14.0926 26.0799C13.4033 26.4323 13.3884 26.4354 12.3872 26.432C11.2531 26.4282 10.7894 26.2963 9.19508 25.5237C7.4368 24.6717 6.07282 24.6203 4.54049 25.3483C3.54555 25.8211 2.71591 26.4765 0.900078 28.2244C0.199761 28.8985 -0.0320903 29.0779 0.00349397 28.9181ZM2.76541 25.4795C3.221 25.1283 3.94795 24.6621 4.38086 24.4436C6.00639 23.6228 6.92934 23.6596 9.6888 24.6552C12.1578 25.5459 13.9958 25.4834 14.871 24.4789C15.3905 23.8826 15.5583 23.4428 15.6012 22.5651C15.6748 21.0589 15.0993 20.1361 13.9145 19.8608C13.088 19.6687 12.2956 20.0553 12.2956 20.6506C12.2956 20.8687 12.6538 21.3218 12.9086 21.4259C13.0239 21.473 13.0238 21.4907 12.9078 21.5793C12.7852 21.6729 12.6793 21.6669 12.0533 21.5311C11.8391 21.4846 11.7986 21.5141 11.704 21.7853C11.6452 21.9541 11.4689 22.2288 11.3122 22.3957C10.6416 23.1106 9.81152 23.2094 8.34959 22.7483C7.23754 22.3976 6.00919 22.3033 5.31236 22.5151C4.90296 22.6395 4.87283 22.6385 4.94178 22.5025C4.98306 22.4211 5.20237 21.7832 5.42913 21.0849C6.18282 18.7639 6.71196 17.9077 7.7146 17.3866C9.13222 16.6499 10.537 16.9117 11.8144 18.1509L12.3763 18.6959L13.3504 18.4862L13.2931 18.1532C13.2016 17.6215 12.9086 16.7758 12.6144 16.1948C11.8204 14.6262 10.424 13.8536 8.64929 14.0011C7.51556 14.0953 6.67153 14.5661 5.53293 15.7391C4.21045 17.1016 3.34531 18.826 2.67642 21.4328C2.40934 22.4736 1.71351 25.7687 1.71351 25.9926C1.71351 26.2273 1.93613 26.1187 2.76541 25.4795ZM10.8061 21.9917C11.024 21.8763 11.3162 21.6576 11.4554 21.5056L11.7084 21.2292L11.521 20.7775C11.4179 20.529 11.3336 20.2399 11.3336 20.1349C11.3336 19.9551 11.5548 19.4625 11.7915 19.1152C11.8811 18.9836 11.8524 18.9107 11.6079 18.6491C11.079 18.0833 10.5122 17.8337 9.65969 17.7912C8.39172 17.728 7.65345 18.1255 6.95373 19.2481C6.63384 19.7613 6.15775 20.8451 6.04313 21.3209L5.98628 21.557L6.58285 21.5585C7.0174 21.5596 7.45258 21.6478 8.18516 21.8834C8.73832 22.0613 9.28928 22.2258 9.40953 22.249C9.78666 22.3216 10.3943 22.2096 10.8061 21.9917ZM70.7594 27.9196C69.2931 26.512 68.3929 25.8075 67.5236 25.3872C65.9306 24.617 64.5879 24.6557 62.7968 25.5237C61.2024 26.2963 60.7388 26.4282 59.6046 26.432C58.6035 26.4354 58.5886 26.4323 57.8992 26.0799C56.196 25.2091 55.1872 23.358 55.4731 21.6276C55.6827 20.3588 56.4821 19.1504 57.3637 18.77L57.816 18.5748L58.1054 17.5626C58.4986 16.1871 58.902 15.3519 59.4926 14.6903C60.272 13.8174 61.1304 13.3811 62.3529 13.2365C64.1259 13.0268 65.6295 13.7266 67.2544 15.5177C69.3252 17.8002 70.5328 20.9423 71.59 26.7982C71.7881 27.8955 71.9664 28.8443 71.9861 28.9067C72.0594 29.1381 71.8697 28.9855 70.7594 27.9196ZM70.2784 26.0402C70.2784 25.8667 69.6356 22.7392 69.3998 21.7656C68.9818 20.0397 68.3212 18.3361 67.6729 17.3122C67.3116 16.7415 67.1592 16.531 66.8917 16.2331C66.735 16.0585 66.6064 15.8897 66.606 15.8579C66.605 15.7769 65.4319 14.7905 65.0929 14.5855C64.2134 14.0538 63.2878 13.8765 62.2544 14.0418C60.8188 14.2714 59.912 15.0303 59.1869 16.6091C58.9462 17.1331 58.5995 18.3907 58.6743 18.4683C58.6913 18.4859 58.9281 18.5467 59.2005 18.6034C59.6849 18.7043 59.7 18.7012 59.8777 18.4669C60.5675 17.5576 61.7135 16.957 62.7537 16.9596C63.6095 16.9617 64.6088 17.4298 65.1915 18.1016C65.7519 18.7477 65.9431 19.162 66.6102 21.1755C67.1346 22.7584 67.1174 22.6144 66.7711 22.5233C66.6077 22.4803 66.0412 22.4492 65.5121 22.4541C64.6877 22.4618 64.426 22.5041 63.6825 22.7502C62.6182 23.1024 61.9136 23.1375 61.3255 22.8678C60.8641 22.6561 60.4434 22.2257 60.2592 21.7771C60.1535 21.5195 60.1031 21.4819 59.937 21.5371C59.5581 21.663 59.1858 21.6916 59.0386 21.6061C58.9105 21.5318 58.9336 21.4921 59.2068 21.317C59.7404 20.975 59.8452 20.5509 59.4877 20.1802C58.846 19.5147 57.4305 19.8117 56.811 20.7418C56.5072 21.1981 56.381 21.6661 56.3764 22.3545C56.3713 23.1161 56.551 23.6874 56.9803 24.2737C57.3441 24.7707 57.7191 25.0124 58.3845 25.1787C59.393 25.4309 60.5554 25.2539 62.6372 24.5312C63.4133 24.2617 64.3154 23.993 64.642 23.934C65.8834 23.7099 67.3497 24.0627 68.3189 24.8187C68.4677 24.9348 68.635 25.0298 68.6906 25.0298C68.7462 25.0298 68.7916 25.0678 68.7916 25.1143C68.7916 25.1609 68.8605 25.2216 68.9447 25.2494C69.0289 25.2771 69.1961 25.3928 69.3164 25.5064C69.8869 26.0455 70.2784 26.2627 70.2784 26.0402ZM63.6465 21.89C64.3269 21.6645 64.8431 21.5523 65.2934 21.532C65.6542 21.5158 65.9588 21.5004 65.9705 21.4977C65.9821 21.4951 65.894 21.2241 65.7747 20.8955C65.2682 19.5001 64.5558 18.4923 63.775 18.0667C63.384 17.8535 63.2236 17.8217 62.5386 17.8209C61.8466 17.8202 61.6934 17.851 61.2705 18.0756C61.0059 18.2161 60.6443 18.4771 60.4667 18.6555L60.144 18.98L60.3682 19.2848C60.6841 19.7143 60.7272 20.2623 60.4891 20.8206L60.3 21.2638L60.5885 21.5201C60.7471 21.6611 61.0737 21.8755 61.3142 21.9966C61.9365 22.3098 62.4509 22.2863 63.6465 21.89ZM35.6891 27.5463C35.0421 26.3002 34.337 25.4185 33.3285 24.5948C32.9918 24.3197 32.5085 23.8678 32.2545 23.5904L31.7926 23.0861L30.4179 23.5565C27.4106 24.5855 26.1772 24.8045 24.8841 24.5389C22.744 24.0993 21.6523 23.4707 19.1171 21.2178C18.3715 20.5553 17.5393 19.8425 17.2677 19.6338L16.7739 19.2543L17.2677 19.0047C17.9584 18.6555 19.3794 17.671 19.3794 17.5416C19.3794 17.4826 19.3227 17.3854 19.2534 17.3258C18.9992 17.107 18.0722 15.6096 17.4215 14.3666C15.7474 11.1688 15.0864 8.58097 14.4463 2.7196C14.3347 1.69766 14.2479 0.856975 14.2534 0.851404C14.2588 0.84583 14.9323 1.01612 15.75 1.22982C17.6083 1.71546 18.5841 2.06935 19.6325 2.63788C20.0844 2.8829 20.4826 3.08338 20.5175 3.08338C20.5524 3.08338 20.604 2.93608 20.6321 2.75604C20.67 2.51426 21.1704 1.24561 21.3542 0.925536C21.3681 0.901297 22.4064 1.65175 22.9809 2.10127C23.1099 2.20217 23.3219 2.44402 23.452 2.63871C23.5821 2.8334 23.7324 2.99064 23.786 2.98814C23.8395 2.98564 23.9906 2.75098 24.1217 2.46668C24.2527 2.18239 24.4546 1.8286 24.5704 1.68048L24.7808 1.41118L25.2504 1.53168C26.2208 1.7807 28.1012 2.83475 29.4682 3.89591C29.7981 4.15201 30.1065 4.34824 30.1535 4.33198C30.2006 4.31572 30.3093 4.09954 30.3952 3.8516C30.4811 3.60365 30.8189 2.8393 31.1459 2.15304C31.6794 1.03351 31.7559 0.91703 31.8902 1.01945C33.2408 2.04872 33.8662 2.69737 34.1662 3.38003C34.226 3.51614 34.323 3.6275 34.3817 3.6275C34.4761 3.6275 35.5275 1.24001 35.8295 0.340079C35.8923 0.153035 35.9654 0 35.9921 0C36.0187 0 36.1348 0.255059 36.25 0.566798C36.7656 1.96241 37.5138 3.6275 37.6252 3.6275C37.6911 3.6275 37.745 3.59134 37.745 3.54715C37.745 3.50296 37.9071 3.21517 38.1051 2.90762C38.3471 2.53183 38.7514 2.10994 39.3379 1.62124C39.8179 1.22129 40.2223 0.907136 40.2367 0.923133C40.3615 1.06175 41.6038 3.82109 41.6456 4.05259C41.6773 4.22773 41.7526 4.353 41.8261 4.353C41.8954 4.353 42.2354 4.13749 42.5816 3.87408C44.1142 2.7079 45.815 1.74902 46.7463 1.52609L47.2102 1.41507L47.4593 1.72777C47.5963 1.89976 47.7984 2.25402 47.9084 2.51503C48.0185 2.77604 48.1545 2.99029 48.2107 2.99114C48.2669 2.99201 48.3953 2.85429 48.4962 2.68514C48.6969 2.34829 49.1046 1.98527 50.0148 1.33295C50.646 0.880564 50.6884 0.859055 50.6884 0.990941C50.6884 1.03718 50.8309 1.39426 51.0052 1.78446C51.1794 2.17466 51.342 2.64694 51.3665 2.83399C51.4203 3.24448 51.5024 3.25386 52.1076 2.91873C53.3267 2.24365 55.0496 1.58182 56.9692 1.05123L57.7841 0.825991L57.737 1.07048C57.7111 1.20495 57.6094 2.09035 57.5111 3.03803C57.152 6.4976 56.5945 9.36858 55.8822 11.4266C55.3262 13.0332 54.0106 15.5874 53.0747 16.8775C52.8204 17.2279 52.6126 17.5426 52.6128 17.5767C52.6132 17.6724 54.1699 18.7256 54.7241 19.0052L55.2179 19.2543L54.7241 19.6337C54.4526 19.8424 53.7187 20.4728 53.0934 21.0347C50.9397 22.9699 49.7337 23.7735 48.2834 24.2399C46.2593 24.8907 45.3567 24.8078 41.8726 23.6506L40.1843 23.0899L39.7299 23.5958C39.48 23.874 39.0197 24.3059 38.707 24.5556C37.699 25.3604 36.8654 26.4136 36.268 27.637C36.1645 27.849 36.0475 28.0225 36.0081 28.0225C35.9686 28.0225 35.825 27.8082 35.6891 27.5463ZM36.9967 25.1431C37.4804 24.6568 38.1998 24.0192 38.5953 23.7262C39.1668 23.3027 39.3598 23.099 39.5355 22.7335C40.1614 21.431 39.4199 19.8606 38.1791 19.8606C37.6441 19.8606 37.3078 20.2351 37.3078 20.831C37.3078 21.0899 37.3661 21.3575 37.4493 21.4808C37.5697 21.6591 37.6529 21.6858 38.0056 21.6597C38.414 21.6295 38.4185 21.632 38.2953 21.8267C37.7661 22.6631 36.8339 22.3478 36.5975 21.2527C36.3423 20.07 37.1618 19.0444 38.362 19.0444H38.864L39.3877 18.2055C40.1535 16.9788 40.4937 16.293 40.816 15.3262C41.0929 14.4956 41.1034 14.4126 41.1076 13.0137C41.1115 11.7419 41.0869 11.4786 40.9085 10.8825C40.5369 9.64049 39.6449 8.09362 38.3016 6.3618C37.3689 5.15927 36.6982 4.0319 36.3646 3.10597C36.2216 2.70891 36.0825 2.45597 36.0149 2.47023C35.9532 2.48325 35.767 2.81812 35.6012 3.21438C35.1701 4.24472 34.5765 5.22746 33.7163 6.33544C32.3609 8.08121 31.463 9.62376 31.096 10.8372C30.8206 11.7479 30.7582 13.5033 30.9667 14.476C31.2503 15.7989 31.8176 17.0365 32.8724 18.6335L33.1701 19.0842L33.7366 19.087C34.488 19.0906 34.9535 19.3915 35.2583 20.0705C35.511 20.6332 35.5239 21.0465 35.3043 21.5478C34.9173 22.4315 34.219 22.5789 33.7376 21.8786L33.5661 21.629L33.9835 21.6597C34.3391 21.6858 34.422 21.6593 34.5425 21.4808C34.6258 21.3575 34.6841 21.0899 34.6841 20.831C34.6841 20.4614 34.6414 20.3465 34.4179 20.1148C34.1743 19.8621 34.1126 19.8421 33.6884 19.8786C33.0935 19.9298 32.7513 20.1828 32.4615 20.7859C32.2986 21.125 32.2359 21.3973 32.2373 21.7601C32.2407 22.6595 32.5921 23.1686 33.8276 24.0641C34.1502 24.2979 34.7377 24.8352 35.1331 25.2582C35.5286 25.6812 35.9118 26.0273 35.9847 26.0273C36.0575 26.0273 36.5129 25.6294 36.9967 25.1431ZM35.7128 24.0256C35.3187 23.7875 35.3596 23.2485 35.7869 23.0466C36.0559 22.9195 36.3772 23.0617 36.5114 23.3672C36.7187 23.8391 36.1627 24.2974 35.7128 24.0256ZM35.6898 18.7741C35.1082 18.6389 34.8091 18.2824 35.0377 17.9968C35.1293 17.8823 35.1812 17.889 35.4269 18.0465C35.7317 18.2418 36.2174 18.2797 36.6743 18.1438C37.0075 18.0448 37.0344 18.1221 36.76 18.3894C36.467 18.6749 35.994 18.8449 35.6898 18.7741ZM35.5352 16.91C35.3557 16.7835 35.2088 16.6644 35.2088 16.6453C35.2088 16.6263 35.1861 16.5491 35.1582 16.4739C35.1134 16.3527 35.155 16.352 35.5258 16.4677C35.9313 16.5943 36.6789 16.5376 36.9849 16.3572C37.0422 16.3234 36.9711 16.4281 36.8268 16.5899C36.5545 16.8952 36.1763 17.14 35.9768 17.14C35.9135 17.14 35.7147 17.0365 35.5352 16.91ZM35.6898 15.2482C35.5455 15.1557 35.3488 14.9862 35.2526 14.8715L35.0776 14.6629L35.2963 14.7248C35.9452 14.9086 36.3292 14.8981 36.6573 14.6879C36.9679 14.4888 36.9877 14.4868 37.098 14.6433C37.2567 14.8684 37.1124 15.1251 36.7351 15.2885C36.3343 15.4622 36.0041 15.4494 35.6898 15.2482ZM35.583 13.3748C35.4787 13.2991 35.3112 13.1174 35.2108 12.9712L35.0282 12.7052L35.4332 12.8484C35.8236 12.9863 36.4349 12.9777 36.8049 12.829C37.0898 12.7146 36.9625 12.9638 36.595 13.2398C36.1941 13.5409 35.871 13.584 35.583 13.3748ZM35.4305 11.4172C35.0514 11.0721 35.0426 10.9926 35.3894 11.0454C35.5368 11.0678 35.8965 11.0336 36.1889 10.9692C36.6813 10.8609 36.7291 10.8648 36.8403 11.0224C37.0029 11.253 36.9569 11.3533 36.6029 11.5399C36.1448 11.7813 35.7896 11.7441 35.4305 11.4172ZM35.4459 9.60395C35.2198 9.37567 35.1436 9.25486 35.2486 9.29082C35.7545 9.46409 36.1655 9.45272 36.486 9.25658C36.7426 9.09963 36.8253 9.083 36.8827 9.17687C37.0431 9.43906 36.8819 9.74079 36.5095 9.87541C36.0336 10.0474 35.8352 9.99677 35.4459 9.60395ZM35.6368 7.84475C35.5114 7.77409 35.3432 7.61248 35.2631 7.48564L35.1173 7.25501L35.5785 7.25451C35.8321 7.25426 36.192 7.21015 36.3781 7.15656C36.5811 7.09811 36.7484 7.0921 36.796 7.14153C36.9127 7.26255 36.5422 7.70836 36.2027 7.85547C35.8624 8.00292 35.9193 8.00399 35.6368 7.84475ZM35.7748 5.55905C35.6405 5.2656 35.6365 5.19526 35.743 4.99953C35.9208 4.67259 36.0509 4.67006 36.159 4.99144C36.2328 5.21105 36.2261 5.34551 36.1296 5.58503C36.061 5.75534 35.9877 5.89469 35.9666 5.89469C35.9456 5.89469 35.8593 5.74365 35.7748 5.55905ZM27.7751 23.5884C28.184 23.4802 29.1924 23.1653 30.0161 22.8886L31.5136 22.3854L31.567 21.7351C31.5963 21.3775 31.6441 20.9595 31.6731 20.8063C31.7254 20.5303 31.7214 20.5268 31.2154 20.41C30.9346 20.3453 30.4359 20.192 30.1072 20.0694L29.5095 19.8466L29.1889 20.0626C28.715 20.382 28.0611 20.6478 27.4748 20.7594C25.4255 21.1494 22.5032 20.2826 20.6334 18.7302C20.2408 18.4042 19.8771 18.1375 19.8252 18.1375C19.7732 18.1375 19.5626 18.2701 19.357 18.4322C19.1515 18.5943 18.797 18.8289 18.5692 18.9535C18.3414 19.0782 18.1551 19.2249 18.1551 19.2797C18.1551 19.4665 20.9891 21.9427 21.8884 22.5417C22.7308 23.1027 23.7511 23.5274 24.8105 23.758C25.4343 23.8939 26.9475 23.8072 27.7751 23.5884ZM25.3264 22.6123C24.7918 22.5122 23.9047 22.1615 23.118 21.7393C22.6489 21.4876 22.2766 21.2698 22.2905 21.2554C22.3044 21.2409 22.6095 21.3082 22.9684 21.4049C24.325 21.7703 25.4392 21.8836 27.0665 21.8215C27.9033 21.7896 28.8084 21.7429 29.0779 21.7178L29.568 21.6721L28.9558 21.9044C27.7238 22.3721 25.9208 22.7237 25.3264 22.6123ZM47.9773 23.5381C49.1003 23.1882 50.0217 22.6828 51.0411 21.8578C51.8865 21.1736 53.8368 19.3756 53.8368 19.2804C53.8368 19.2252 53.6548 19.08 53.4323 18.9576C53.2098 18.8352 52.858 18.6006 52.6505 18.4363C52.4429 18.272 52.2313 18.1375 52.1801 18.1375C52.129 18.1375 51.7626 18.4056 51.3659 18.7332C48.8216 20.8345 44.9369 21.4696 42.8883 20.1191L42.4781 19.8487L41.7076 20.1206C41.2839 20.2701 40.7859 20.4209 40.6011 20.4556C40.292 20.5137 40.2696 20.5377 40.321 20.7564C40.3517 20.8872 40.3995 21.3066 40.4273 21.6884L40.4777 22.3826L41.9755 22.8918C44.3079 23.6847 45.1189 23.858 46.2719 23.8099C46.9618 23.7812 47.4442 23.7043 47.9773 23.5381ZM45.5165 22.5747C44.8447 22.4723 43.7985 22.1875 42.9049 21.8636L42.1615 21.5942L43.1673 21.6569C45.0452 21.7741 47.9492 21.7218 48.8081 21.5554C49.8152 21.3602 49.8538 21.3655 49.3617 21.6313C48.6579 22.0113 47.6811 22.381 46.9891 22.5292C46.2647 22.6844 46.2415 22.6851 45.5165 22.5747ZM47.4526 19.4339C48.9036 19.083 50.3743 18.1203 51.914 16.5136C54.1366 14.1943 55.2016 11.9819 55.9864 8.05391C56.3526 6.22136 56.9014 2.0594 56.7919 1.94587C56.7182 1.8694 55.214 2.32773 54.2228 2.72869C52.5678 3.39817 51.1068 4.27399 49.6483 5.47085L48.9143 6.07321L48.8975 8.13778C48.8782 10.5086 48.7857 11.2777 48.3603 12.6056C47.6229 14.9071 46.2479 17.0301 44.6064 18.4014C44.2237 18.7211 43.8987 19.0333 43.884 19.0953C43.8499 19.2395 44.5573 19.485 45.2803 19.5797C45.9519 19.6677 46.6913 19.6181 47.4526 19.4339ZM47.5814 16.571C47.9898 15.9508 48.3829 15.4992 49.0018 14.9393C51.4646 12.7113 52.0119 11.8422 53.6124 7.61776C53.9242 6.79476 54.181 6.15409 54.183 6.19404C54.1926 6.3869 53.5229 8.95793 53.1886 10.0114C52.69 11.5828 52.2994 12.3651 51.4427 13.5087C50.2291 15.1287 48.9596 16.3027 47.5189 17.1375L47.0168 17.4285L47.5814 16.571ZM27.5473 19.4035C27.865 19.3017 28.1246 19.1691 28.1243 19.1088C28.1239 19.0484 27.844 18.7746 27.5023 18.5003C25.3984 16.8113 23.5965 13.5939 23.2106 10.8372C23.1445 10.3644 23.0964 9.19725 23.0963 8.06325L23.0963 6.10552L22.4096 5.52869C20.9762 4.32472 19.3865 3.37353 17.6378 2.67362C16.7334 2.31162 15.2679 1.87543 15.1983 1.94754C15.1334 2.01487 15.4027 4.38312 15.673 6.12141C16.4614 11.1914 17.5341 13.8024 19.8583 16.3085C21.337 17.903 22.9457 18.9981 24.4103 19.4072C25.2869 19.6521 26.7767 19.6503 27.5473 19.4035ZM24.1944 16.9563C22.7178 16.0263 21.7231 15.0835 20.5261 13.4795C19.6911 12.3605 19.2969 11.567 18.8032 10.0114C18.4656 8.9474 17.7977 6.3801 17.8101 6.19404C17.8128 6.15409 18.0692 6.79476 18.3799 7.61776C19.5548 10.7295 19.9549 11.5469 20.8936 12.7525C21.439 13.4529 22.547 14.5833 23.4428 15.3531C23.6851 15.5613 24.1276 16.1098 24.4262 16.5719C24.7247 17.034 24.9575 17.412 24.9435 17.412C24.9295 17.412 24.5924 17.2069 24.1944 16.9563ZM32.2354 19.3212C32.2354 19.2739 32.004 18.8544 31.7211 18.3889C30.6496 16.6252 29.9189 14.809 29.8145 13.6499C29.6803 12.1589 30.3089 10.1784 31.5886 8.06137C31.8481 7.632 32.0604 7.23148 32.0604 7.17131C32.0604 7.03667 31.8306 6.83271 30.3037 5.61276C28.0233 3.79068 25.6392 2.26719 25.0683 2.26719C24.849 2.26719 24.784 2.33182 24.5899 2.7433C24.0412 3.90642 23.6857 6.30781 23.7833 8.1909C23.8898 10.2453 24.3341 11.8076 25.4258 13.9659C26.6067 16.3004 28.1077 17.9497 29.7977 18.7698C30.7313 19.2228 32.2354 19.563 32.2354 19.3212ZM29.2124 16.8513C26.4843 13.9084 25.6768 11.0349 26.3025 6.49676L26.4168 5.66797L26.5184 7.75379C26.5761 8.93911 26.6837 10.1528 26.7675 10.5651C27.0616 12.0119 27.956 13.8451 29.2674 15.6889C29.9434 16.6396 30.0075 16.7947 29.9006 17.2225L29.8275 17.5148L29.2124 16.8513ZM40.945 19.2237C43.6906 18.4956 45.849 16.1126 47.4179 12.0773C48.1489 10.1969 48.3833 8.19175 48.1428 5.87558C48.0247 4.7388 47.7044 3.3845 47.4019 2.7433C47.118 2.14137 46.9525 2.12871 45.9783 2.63437C44.4849 3.40947 39.9503 6.80195 39.9364 7.1545C39.9337 7.22391 40.1469 7.63475 40.4102 8.06747C41.0495 9.11816 41.7137 10.5818 41.9552 11.472C42.1038 12.0198 42.1526 12.4418 42.1545 13.195C42.1567 14.0852 42.127 14.2824 41.8784 15.0261C41.5452 16.0233 40.9142 17.3431 40.2454 18.442C39.9765 18.8838 39.7565 19.2817 39.7565 19.3262C39.7565 19.4582 40.2075 19.4193 40.945 19.2237ZM42.0768 17.1565C42.006 16.722 42.0246 16.6817 42.8227 15.539C43.8392 14.0838 44.4968 12.8869 44.871 11.8113C45.2647 10.6795 45.3685 9.98938 45.4746 7.79913L45.5778 5.66797L45.7381 6.88475C46.2411 10.7041 45.6074 13.3097 43.5275 15.9743C43.2412 16.3411 42.811 16.8394 42.5716 17.0817L42.1364 17.5223L42.0768 17.1565ZM33.129 5.90869C33.6206 5.27786 33.9819 4.6443 33.9834 4.4105C33.984 4.31742 33.8483 4.04897 33.6819 3.81394C33.2614 3.2199 32.0076 1.99513 31.8199 1.99513C31.6741 1.99513 31.1946 2.99417 30.6925 4.3442L30.544 4.7435L30.8864 5.02436C31.0747 5.17884 31.5044 5.55768 31.8414 5.86624C32.1783 6.1748 32.513 6.4297 32.5852 6.4327C32.6573 6.4357 32.902 6.19989 33.129 5.90869ZM40.1556 5.85311C40.5118 5.53097 40.9256 5.17389 41.0752 5.05959C41.31 4.88022 41.3416 4.8083 41.3064 4.53397C41.2436 4.04402 40.3464 2.04723 40.1736 2.01272C39.9056 1.95921 38.2478 3.69019 38.0528 4.22714C37.9824 4.42077 38.012 4.54751 38.2167 4.92965C38.5425 5.53779 39.2436 6.43805 39.3917 6.43848C39.4557 6.4386 39.7994 6.17525 40.1556 5.85311ZM23.4767 4.39108L23.6667 3.61296L23.4865 3.3506C23.135 2.83866 21.6651 1.75484 21.4425 1.84343C21.315 1.89417 20.9536 2.94715 20.9536 3.26798C20.9536 3.42965 22.9843 5.14912 23.1915 5.16287C23.2438 5.16634 23.3722 4.81904 23.4767 4.39108ZM49.5348 4.64175C49.9047 4.35166 50.3943 3.98242 50.6228 3.82121C50.9 3.62562 51.0382 3.4638 51.0382 3.33485C51.0382 3.01871 50.6564 1.88599 50.5333 1.83701C50.3155 1.75036 48.6245 3.03934 48.4096 3.45586C48.3151 3.63879 48.6493 5.16919 48.7837 5.16919C48.8269 5.16919 49.1649 4.93184 49.5348 4.64175Z" fill="#352D22"/>
</svg>
